<?xml version="1.0" encoding="utf-8"?>
<!-- Generator: Adobe Illustrator 21.1.0, SVG Export Plug-In . SVG Version: 6.00 Build 0)  -->
<svg version="1.1" id="Layer_1" xmlns="http://www.w3.org/2000/svg" xmlns:xlink="http://www.w3.org/1999/xlink" x="0px" y="0px"
	 viewBox="0 0 1200 1200" style="enable-background:new 0 0 1200 1200;" xml:space="preserve">
<style type="text/css">
	.st0{fill:#6BEAF6;}
	.st1{fill:#D7E7F2;}
	.st2{fill:#8480D8;}
	.st3{fill:#B5B1CD;}
</style>
<path class="st0" d="M216,437.6c-12.3,3.5-6.1,21.3,6,18C234.3,452.2,228,434.2,216,437.6 M272,447.7c-11.9,4.6-3.7,22.8,8,17.6
	C291.1,460.4,283,443.5,272,447.7z"/>
<path class="st1" d="M162,453c1.8,0.8,3,0.9,5,1C165.2,453.2,164,453.1,162,453z"/>
<path class="st0" d="M160,454.7c-11.6,4.7-3.8,22.2,7.9,17.2C179.6,467,171.6,450.1,160,454.7z"/>
<path class="st1" d="M285.3,454.7c-0.1,0.1-0.1,1.1,0.3,0.7C285.7,455.3,285.8,454.2,285.3,454.7 M265,455v3
	C265.7,456.4,265.7,456.6,265,455 M217,456c1.8,0.8,3,0.9,5,1C220.2,456.2,219,456.1,217,456 M285.3,458.7c-0.1,0.1-0.1,1.1,0.3,0.7
	C285.7,459.3,285.8,458.2,285.3,458.7 M273.7,466.3c-0.4,0.4,0.6,0.4,0.7,0.3C274.8,466.2,273.7,466.3,273.7,466.3 M276,466
	c1.2,0.7,1.5,0.7,3,1C277.8,466.3,277.5,466.3,276,466z"/>
<path class="st2" d="M219,468.8c-8.8,3.2-3.6,16.6,4.9,12.8C231.8,478.1,227.2,465.8,219,468.8z"/>
<path class="st1" d="M163.7,473.3c-0.4,0.4,0.6,0.4,0.7,0.3C164.8,473.2,163.7,473.3,163.7,473.3 M228.3,473.7
	c-0.1,0.1-0.1,1.1,0.3,0.7C228.7,474.3,228.8,473.2,228.3,473.7z"/>
<path class="st2" d="M262.1,478.8c-8.2,3.2-2.5,16.7,5.8,12.8C275.7,487.9,269.9,475.7,262.1,478.8z"/>
<path class="st1" d="M318.7,481.3c-0.4,0.4,0.6,0.4,0.7,0.3C319.8,481.2,318.7,481.3,318.7,481.3z"/>
<path class="st0" d="M320,481.8c-12.5,0.9-10.3,20,2,19.1C334.7,500,332.4,480.9,320,481.8z"/>
<path class="st1" d="M321,481c1.2,0.7,1.5,0.7,3,1C322.8,481.3,322.5,481.3,321,481 M219.7,482.3c-0.4,0.4,0.6,0.4,0.7,0.3
	C220.8,482.2,219.7,482.3,219.7,482.3z"/>
<path class="st2" d="M181.1,483.7c-8.6,3.4-2.7,16.1,5.8,12.5C195,492.9,189,480.6,181.1,483.7z"/>
<path class="st3" d="M257.3,484.7c-0.1,0.1-0.1,1.1,0.3,0.7C257.7,485.3,257.8,484.2,257.3,484.7z"/>
<path class="st1" d="M257.3,486.7c-0.1,0.1-0.1,1.1,0.3,0.7C257.7,487.3,257.8,486.2,257.3,486.7 M176.3,488.7
	c-0.1,0.1-0.1,1.1,0.3,0.7C176.7,489.3,176.8,488.2,176.3,488.7 M265.7,492.3c-0.4,0.4,0.6,0.4,0.7,0.3
	C266.8,492.2,265.7,492.3,265.7,492.3z"/>
<path class="st0" d="M121,493.7c-12.2,3.6-7.2,22.4,5,18.7C137.4,508.8,133,490.2,121,493.7z"/>
<path class="st1" d="M311.3,493.7c-0.1,0.1-0.1,1.1,0.3,0.7C311.7,494.3,311.8,493.2,311.3,493.7 M182,497c1.2,0.7,1.5,0.7,3,1
	C183.8,497.3,183.5,497.3,182,497 M113.3,500.7c-0.1,0.1-0.1,1.1,0.3,0.7C113.7,501.3,113.8,500.2,113.3,500.7 M319,501
	c1.5,0.7,2.3,0.8,4,1C321.5,501.3,320.7,501.2,319,501 M296,503c1.2,0.7,1.5,0.7,3,1C297.8,503.3,297.5,503.3,296,503 M113.3,504.7
	c-0.1,0.1-0.1,1.1,0.3,0.7C113.7,505.3,113.8,504.2,113.3,504.7z"/>
<path class="st2" d="M294.1,505c-7.6,4.4-0.1,16.5,7.6,11.8C309.3,512.2,301.8,500.5,294.1,505z"/>
<path class="st1" d="M290,509v4C290.7,511.2,290.7,510.8,290,509z"/>
<path class="st3" d="M152.7,512.3c-0.4,0.4,0.6,0.4,0.7,0.3C153.8,512.2,152.7,512.3,152.7,512.3z"/>
<path class="st2" d="M154,512.8c-8.5,0.5-7.8,13.5,1,13.1C164,525.5,162.8,512.3,154,512.8z"/>
<path class="st3" d="M155.7,512.3c-0.4,0.4,0.6,0.4,0.7,0.3C156.8,512.2,155.7,512.3,155.7,512.3 M161.3,517.7
	c-0.1,0.1-0.1,1.1,0.3,0.7C161.7,518.3,161.8,517.2,161.3,517.7 M147,518v3C147.7,519.4,147.7,519.6,147,518z"/>
<path class="st1" d="M297.7,518.3c-0.4,0.4,0.6,0.4,0.7,0.3C298.8,518.2,297.7,518.3,297.7,518.3z"/>
<path class="st3" d="M152,526c1.5,0.7,2.3,0.8,4,1C154.5,526.3,153.7,526.2,152,526"/>
<path class="st1" d="M104,546c1.8,0.8,3,0.9,5,1C107.2,546.2,106,546.1,104,546z"/>
<path class="st0" d="M102,547.7c-11.3,4.6-3.3,22.9,7.9,17.8C121.4,560.3,113.8,543,102,547.7z"/>
<path class="st3" d="M139.7,549.3c-0.4,0.4,0.6,0.4,0.7,0.3C140.8,549.2,139.7,549.3,139.7,549.3z"/>
<path class="st2" d="M136.2,551c-7.4,4.5,0.2,16.2,7.5,11.8C151.4,558.2,144,546.3,136.2,551z"/>
<path class="st1" d="M96.3,553.7c-0.1,0.1-0.1,1.1,0.3,0.7C96.7,554.3,96.8,553.2,96.3,553.7z"/>
<path class="st1" d="M147,555v3C147.7,556.4,147.7,556.6,147,555z"/>
<path class="st1" d="M96.3,558.7c-0.1,0.1-0.1,1.1,0.3,0.7C96.7,559.3,96.8,558.2,96.3,558.7z"/>
<path class="st1" d="M103.7,566.3c-0.4,0.4,0.6,0.4,0.7,0.3C104.8,566.2,103.7,566.3,103.7,566.3 M107.7,566.3
	c-0.4,0.4,0.6,0.4,0.7,0.3C108.8,566.2,107.7,566.3,107.7,566.3z"/>
<path class="st2" d="M147,591.9c-8.5,2.4-4.6,15.7,4,13C159.3,602.2,155.3,589.6,147,591.9z"/>
<path class="st3" d="M149.7,591.3c-0.4,0.4,0.6,0.4,0.7,0.3C150.8,591.2,149.7,591.3,149.7,591.3z"/>
<path class="st1" d="M141,597v3C141.7,598.4,141.7,598.6,141,597z"/>
<path class="st1" d="M115,601c1.2,0.7,1.5,0.7,3,1C116.8,601.3,116.5,601.3,115,601z"/>
<path class="st0" d="M113,602.7c-11.4,4.4-4.6,22.7,7,18.2C131.3,616.5,124.7,598.2,113,602.7z"/>
<path class="st1" d="M106,610v3C106.7,611.4,106.7,611.6,106,610 M126,610v4C126.7,612.2,126.7,611.8,126,610z"/>
<path class="st1" d="M289,617c1.5,0.7,2.3,0.8,4,1C291.5,617.3,290.7,617.2,289,617z"/>
<path class="st2" d="M288.1,618.7c-8.1,3.4-2.5,15.9,5.8,12.5C302,627.9,296.6,615.1,288.1,618.7z"/>
<path class="st1" d="M113.7,621.3c-0.4,0.4,0.6,0.4,0.7,0.3C114.8,621.2,113.7,621.3,113.7,621.3z"/>
<path class="st1" d="M298,623v3C298.7,624.4,298.7,624.6,298,623z"/>
<path class="st3" d="M174,624c1.2,0.7,1.5,0.7,3,1C175.8,624.3,175.5,624.3,174,624z"/>
<path class="st1" d="M283.3,624.7c-0.1,0.1-0.1,1.1,0.3,0.7C283.7,625.3,283.8,624.2,283.3,624.7z"/>
<path class="st2" d="M172.2,625.7c-7.7,3.4-2,15.4,5.7,12.5C186.7,635,180.5,622,172.2,625.7z"/>
<path class="st3" d="M182,629v3C182.7,630.4,182.7,630.6,182,629z"/>
<path class="st1" d="M168.3,633.7c-0.1,0.1-0.1,1.1,0.3,0.7C168.7,634.3,168.8,633.2,168.3,633.7 M309,636c1.8,0.8,3,0.9,5,1
	C312.2,636.2,311,636.1,309,636 M251.7,637.3c-0.4,0.4,0.6,0.4,0.7,0.3C252.8,637.2,251.7,637.3,251.7,637.3z"/>
<path class="st3" d="M253.7,637.3c-0.4,0.4,0.6,0.4,0.7,0.3C254.8,637.2,253.7,637.3,253.7,637.3z"/>
<path class="st0" d="M308,637.7c-11.3,4.4-5,22.2,7,17.5C326.3,650.8,319.8,633.1,308,637.7z"/>
<path class="st2" d="M250.1,639c-8,4.6,0.1,15.9,7.7,11C265.4,645.2,257.5,634.8,250.1,639 M209.1,641c-8.3,4.4-1.2,16.6,6.8,11.9
	C223,648.8,216.8,636.9,209.1,641z"/>
<path class="st1" d="M301,644v5C301.8,647,301.8,646,301,644 M321,644v5C321.8,647,321.8,646,321,644 M246.3,645.7
	c-0.1,0.1-0.1,1.1,0.3,0.7C246.7,646.3,246.8,645.2,246.3,645.7z"/>
<path class="st0" d="M149,646.7c-12,3.7-5.7,22.4,6,18.6C167.1,661.4,160.8,643,149,646.7z"/>
<path class="st3" d="M219.3,646.7c-0.1,0.1-0.1,1.1,0.3,0.7C219.7,647.3,219.8,646.2,219.3,646.7z"/>
<path class="st1" d="M219.3,648.7c-0.1,0.1-0.1,1.1,0.3,0.7C219.7,649.3,219.8,648.2,219.3,648.7z"/>
<path class="st3" d="M251.7,651.3c-0.4,0.4,0.6,0.4,0.7,0.3C252.8,651.2,251.7,651.3,251.7,651.3 M254.7,651.3
	c-0.4,0.4,0.6,0.4,0.7,0.3C255.8,651.2,254.7,651.3,254.7,651.3z"/>
<path class="st1" d="M211,654c1.2,0.7,1.5,0.7,3,1C212.8,654.3,212.5,654.3,211,654 M309,656c1.8,0.8,3,0.9,5,1
	C312.2,656.2,311,656.1,309,656 M142.3,658.7c-0.1,0.1-0.1,1.1,0.3,0.7C142.7,659.3,142.8,658.2,142.3,658.7 M261,665
	c1.2,0.7,1.5,0.7,3,1C262.8,665.3,262.5,665.3,261,665z"/>
<path class="st0" d="M258,666.9c-11.6,5-3.6,21.9,7.9,17.4C277.9,679.6,269.7,661.9,258,666.9 M202,669.6c-11.8,3.1-7.1,21.5,5,18.6
	C219.5,685.2,214.1,666.4,202,669.6z"/>
<path class="st1" d="M272.3,674.7c-0.1,0.1-0.1,1.1,0.3,0.7C272.7,675.3,272.8,674.2,272.3,674.7 M194,676v5
	C194.8,679,194.8,678,194,676 M214.3,676.7c-0.1,0.1-0.1,1.1,0.3,0.7C214.7,677.3,214.8,676.2,214.3,676.7 M252.3,678.7
	c-0.1,0.1-0.1,1.1,0.3,0.7C252.7,679.3,252.8,678.2,252.3,678.7 M214.3,680.7c-0.1,0.1-0.1,1.1,0.3,0.7
	C214.7,681.3,214.8,680.2,214.3,680.7 M260,685c1.5,0.7,2.3,0.8,4,1C262.5,685.3,261.7,685.2,260,685 M201.7,688.3
	c-0.4,0.4,0.6,0.4,0.7,0.3C202.8,688.2,201.7,688.3,201.7,688.3 M206.7,688.3c-0.4,0.4,0.6,0.4,0.7,0.3
	C207.8,688.2,206.7,688.3,206.7,688.3z"/>
</svg>
