<?xml version="1.0" encoding="utf-8"?>
<!-- Generator: Adobe Illustrator 21.1.0, SVG Export Plug-In . SVG Version: 6.00 Build 0)  -->
<svg version="1.1" id="Layer_1" xmlns="http://www.w3.org/2000/svg" xmlns:xlink="http://www.w3.org/1999/xlink" x="0px" y="0px"
	 viewBox="0 0 1280 800" style="enable-background:new 0 0 1280 800;" xml:space="preserve">
<style type="text/css">
	.st0{fill:#D5DBDA;}
	.st1{fill:#FFFFFF;}
	.st2{fill:#EFEFEF;}
	.st3{fill:#FFD04D;}
	.st4{fill:#00BFD8;}
	.st5{opacity:0.15;}
	.st6{opacity:0.26;enable-background:new    ;}
	.st7{opacity:0.62;}
	.st8{fill:#66341B;}
	.st9{fill:#723E24;}
	.st10{opacity:0.3;}
	.st11{fill:#E8F6F7;}
	.st12{fill:#D0E0E2;}
	.st13{fill:#FFE1BD;}
	.st14{fill:#F4F4F4;}
	.st15{fill:#EAEAEA;}
	.st16{fill:#3A3A3A;}
	.st17{fill:#E2E2E2;}
	.st18{fill:#F4D5B5;}
	.st19{fill:#632F00;}
	.st20{fill:#E8C5A0;}
	.st21{fill:#8C4200;}
	.st22{fill:#606060;}
	.st23{fill:#E5BB98;}
	.st24{fill:#D8D8D8;}
	.st25{fill:#09424C;}
	.st26{fill:#0C5A71;}
	.st27{opacity:0.1;}
	.st28{fill:#0B0B3A;}
	.st29{opacity:0.39;fill:#CE9006;enable-background:new    ;}
	.st30{fill:#D69507;}
	.st31{fill:#EFAF11;}
	.st32{fill:#CE9006;}
	.st33{fill:#FAFEFF;}
	.st34{fill:#B4EFF9;}
	.st35{fill:#75D9EF;}
	.st36{opacity:0.5;}
	.st37{fill:#282C2D;}
	.st38{fill:#D6D6D6;}
	.st39{fill:#525252;}
	.st40{fill:#A5A5AF;}
	.st41{fill:#F1F2F2;}
	.st42{fill:#A7A9AC;}
	.st43{fill:#383838;}
	.st44{fill:#E6E7E8;}
	.st45{fill:#58595B;}
	.st46{fill:#594A42;}
	.st47{fill:#81553A;}
	.st48{opacity:0.55;fill:#EFAF11;enable-background:new    ;}
	.st49{fill:#709E3E;}
	.st50{fill:#93BC6C;}
	.st51{fill:#4C2311;}
	.st52{fill:#1A1A47;}
	.st53{opacity:0.54;fill:#3D3D72;enable-background:new    ;}
	.st54{clip-path:url(#SVGID_2_);}
	.st55{fill:#E1EDF9;}
	.st56{fill:#C2E0F2;}
	.st57{fill:#FFD19F;}
	.st58{fill:#006466;}
	.st59{fill:#007D87;}
	.st60{opacity:0.18;fill:#00B3B7;enable-background:new    ;}
	.st61{opacity:0.45;fill:#00B3B7;enable-background:new    ;}
	.st62{fill:#3D3D72;}
	.st63{fill:#33305B;}
	.st64{fill:#52382E;}
</style>
<g>
	<g id="Layer_1_1_">
		<rect x="816.1" y="102.6" class="st0" width="451.4" height="266.6"/>
		<rect x="828.6" y="107.9" class="st1" width="426.3" height="256.2"/>
		<rect x="859.9" y="119.7" class="st2" width="360.9" height="17.1"/>
		<rect x="873" y="282.5" class="st3" width="19.6" height="49.3"/>
		<rect x="917.2" y="239.2" class="st4" width="19.6" height="92.5"/>
		<rect x="961.4" y="248.8" class="st3" width="19.6" height="83"/>
		<rect x="1005.7" y="202" class="st4" width="19.6" height="129.8"/>
		<g class="st5">
			<rect x="917.2" y="239.2" class="st6" width="9" height="92.5"/>
		</g>
		<g class="st5">
			<rect x="873" y="282.5" class="st6" width="9" height="49.3"/>
		</g>
		<g class="st7">
			<rect x="1005.7" y="202" class="st6" width="9" height="129.8"/>
		</g>
		<g class="st5">
			<rect x="961.4" y="248.8" class="st6" width="9" height="83"/>
		</g>
		<polygon class="st0" points="1035.7,345.4 860,345.4 860,158.3 862.7,158.3 862.7,342.7 1035.7,342.7 		"/>
		<polygon class="st0" points="878.1,259.4 876.3,257.4 922.2,216.2 964.8,225.4 1010.9,174.1 1012.9,175.9 965.7,228.4 923,219.1 
					"/>
		<polygon class="st0" points="1016.5,183.5 1003.5,171 1020.3,166.5 		"/>
		<rect x="1052.3" y="270.8" class="st4" width="16.5" height="16.5"/>
		<rect x="1052.3" y="299.6" class="st3" width="16.5" height="16.5"/>
		<rect x="1073.3" y="306.8" class="st2" width="52.2" height="9.4"/>
		<rect x="1073.3" y="277.9" class="st2" width="52.2" height="9.4"/>
		<rect x="1149.2" y="270.8" class="st4" width="16.5" height="16.5"/>
		<rect x="1149.2" y="299.6" class="st3" width="16.5" height="16.5"/>
		<rect x="1170.2" y="306.8" class="st2" width="52.2" height="9.4"/>
		<rect x="1170.2" y="277.9" class="st2" width="52.2" height="9.4"/>
		<rect x="1066.4" y="169.6" class="st2" width="154.4" height="3.5"/>
		<rect x="1054.3" y="178.1" class="st2" width="166.5" height="3.5"/>
		<rect x="1054.3" y="186.6" class="st2" width="166.5" height="3.5"/>
		<rect x="1054.3" y="195.1" class="st2" width="166.5" height="3.5"/>
		<rect x="1054.3" y="203.7" class="st2" width="166.5" height="3.5"/>
		<rect x="1054.3" y="212.2" class="st2" width="166.5" height="3.5"/>
		<rect x="1054.3" y="220.7" class="st2" width="166.5" height="3.5"/>
		<rect x="1054.3" y="229.2" class="st2" width="166.5" height="3.5"/>
		<rect x="1078" y="237.7" class="st2" width="142.7" height="3.5"/>
		<path class="st8" d="M1277.1,100.5c0,1.9-1.6,3.5-3.5,3.5H809.9c-1.9,0-3.5-1.6-3.5-3.5l0,0l0,0c0-1.9,1.6-3.5,3.5-3.5l0,0h463.8
			C1275.6,97,1277.1,98.6,1277.1,100.5L1277.1,100.5L1277.1,100.5z"/>
		<path class="st8" d="M1277.1,371.4c0,1.9-1.6,3.5-3.5,3.5H809.9c-1.9,0-3.5-1.6-3.5-3.5l0,0l0,0c0-1.9,1.6-3.5,3.5-3.5l0,0h463.8
			C1275.6,367.9,1277.1,369.5,1277.1,371.4L1277.1,371.4z"/>
		<path class="st9" d="M739.2,677.3l2.5-134.6h-9l2.5,134.6c-0.3,1.1,0.4,2.2,1.5,2.4c1.1,0.3,2.2-0.4,2.4-1.5
			C739.3,677.9,739.3,677.6,739.2,677.3z"/>
		<path class="st9" d="M656.9,661.6l52-124.1l-8.3-3.3l-47.3,126c-0.5,1.1-0.1,2.4,0.9,3C655.4,663.4,656.6,662.7,656.9,661.6z"/>
		<path class="st9" d="M817.5,661.6l-52-124.1l8.3-3.3l47.3,126c0.6,0.9,0.4,2.2-0.5,2.8s-2.2,0.4-2.8-0.5
			C817.7,662.2,817.6,661.9,817.5,661.6z"/>
		<g class="st10">
			<path d="M699.2,538l5.3,2.1l-48.9,123c0.6-0.3,1.1-0.8,1.3-1.5l52-124.1l-8.3-3.3L699.2,538z"/>
			<path d="M732.8,546.3h6.7L737,679.8c0.1,0,0.2,0,0.2,0c1.2-0.2,2.1-1.3,2-2.5l2.5-134.6h-9L732.8,546.3z"/>
			<path d="M821.2,660.1l-47.3-126l-8.3,3.3l1,2.3l5.1-2l47,125.3c0.5,0.3,1,0.4,1.6,0.2C821.3,662.5,821.7,661.2,821.2,660.1z"/>
		</g>
		<path class="st11" d="M798.9,549.1c-9.1,7.4-22.5,14.2-56.7,14.9c-44.9,0.9-68.5-4.2-81.2-27.4c-21.3-38.7,5.4-163.8,47.5-136.1
			c35.2,23.2,42.2,97.1,46.9,107.3C760,518,820.9,531.2,798.9,549.1z"/>
		<path class="st12" d="M750,554.4c-44.9,0.9-68.5-4.2-81.2-27.4c-14.6-26.4-6.7-93.1,13.1-123.9c-25.4,23.5-37.2,103.8-20.9,133.5
			c12.8,23.2,36.3,28.3,81.2,27.4c34.2-0.7,47.6-7.5,56.7-14.9c3.1-2.5,4.5-4.9,4.8-7.3C794.6,548.3,780.6,553.8,750,554.4z"/>
		<path class="st13" d="M769.2,258.5c3.1-8.9,5.9-18.2,10.7-13.5c5.1,5,4.7,4.4,2.8,11.2C780.9,263.1,766.6,266,769.2,258.5z"/>
		<path class="st13" d="M774.7,245.8c1.5-4.2,4-9,6.6-11s-1.3,5-2.2,8.3C778.1,246.3,773.4,249.4,774.7,245.8z"/>
		<path class="st14" d="M770.5,293.9c3.6-13.5,5.4-31.3,5.4-31.3l-6.8-4.6c0,0-13.8,28.3-21.2,49.8l-38.4-9.9l-4.7-1l12.5,24.9
			c0,0,37,5.4,39.2,4.1C758.9,324.8,766.9,307.7,770.5,293.9z"/>
		<path class="st15" d="M756.6,326.1c-2.3,1.3-39.2-4.1-39.2-4.1l-12.5-25l4.7,1c3.4,1.5,9,7,13.6,13c3.3,4.3,5.1,5.8,10,7.7
			c7.6,2.8,15.6,4.9,18.6,5.1c5.1,0.3,5.6,0.6,6.7-0.9C758.7,324.2,757.9,325.5,756.6,326.1z"/>
		<path class="st14" d="M666.3,372.4c2.4,6.2,2.9,13,1.5,19.5c-2.9,12.9,0.4,13.8,0.4,13.8s17.5,11.1,32.1,15.7
			c10.4,3.2,19.3,2.7,19.1-8.8v-0.2c0-0.7,0-1.4-0.1-2c-0.5-25.9,4.9-27.2,6.2-56.2c1.4-29.7-6.6-46.3-14.5-53.5s-18.7-7.4-38.9-2.7
			c-15.2,3.6-20.2,7.6-20.1,18.9c0.2,4.7,0.7,9.3,1.6,13.9C656.2,344.8,662.2,361.8,666.3,372.4z"/>
		<path class="st16" d="M703,308.6c0,0,15.8,51.7,12.6,76.5l-5.8,10.6l-6.4-11.5c0,0,5.2-49.5-4.7-74.7L703,308.6z"/>
		<path class="st17" d="M666.3,372.4c2.4,6.2,2.9,13,1.5,19.5c-2.9,12.9,0.4,13.8,0.4,13.8s17.5,11.1,32.1,15.7l13.6-1.3l5.4-4.3
			v-3.4c0-0.7,0-1.4-0.1-2c-6.8,0.5-13.7,0.3-20.5-0.5c-6.9-0.9-13.7-2.6-20.1-5c-3.5-1.3-5.6-5-5-8.7c1.1-6,1.7-12,1.9-18.1
			c0-5.7-2.7-15.3-4.8-22.3c-1.6-5.3-2.2-10.9-1.8-16.5c0.4-6.3,0.4-12.5,0-18.8l-10.8-5.8l-6,2.2c0.2,4.7,0.7,9.3,1.6,13.9
			C656.2,344.8,662.2,361.8,666.3,372.4z"/>
		<path class="st18" d="M666.1,427.3c-1.2,0.2-4.4-5.4-4.4-5.4l1.3-1.8c0.8-1,1.8-1.7,3-2.1l0.2-0.1c1.1-0.3,2.2,0.1,2.9,1
			c0.9,1.4,2.3,2.9,4,2.8l0,0c0.1,0,0.1,0,0.2,0C674.7,421.9,667.3,427.1,666.1,427.3z"/>
		<path class="st19" d="M715.2,247.3c0,0,1.4,3.8-0.7,6.8l-8.4-11.3l5.8-0.1L715.2,247.3z"/>
		<path class="st13" d="M669.9,262.3c0.4,14.6,12.9,23,12.9,23l-0.8,13.3l8.5,5.5l5.8,3.8l3.3-7l0.5-8.6c0.1-2,1.5-3.7,3.5-4.1
			c3.2-0.8,6.1-2.5,8.3-5c0.2-0.2,0.4-0.4,0.5-0.7l0,0c5.5-7.5,7.6-36.3-11.3-44.4C681.6,229.7,669.5,247.7,669.9,262.3z"/>
		<path class="st20" d="M691,296.1l-0.6,8l5.8,3.8l3.3-7l0.5-8.6c0.1-2,1.5-3.7,3.5-4.1c3.2-0.8,6.1-2.5,8.3-5
			c0.2-0.2,0.4-0.4,0.5-0.7c-3.7,2-7.7,3.3-11.9,3.7C695.4,286.8,691.4,291,691,296.1z"/>
		<path class="st21" d="M690.2,266.8c-0.7,0.3-1.4-0.8-1.4-0.8s-4.1-9.2-5.5-10.6c-2.5-2.5-8.5-2.3-8.9,5.6
			c-0.4,6.1,6.8,19.1,9.1,22.9c0.3,0.6,0.2,1.4-0.4,1.8c-0.2,0.2-0.5,0.3-0.8,0.3h-0.1c-0.3,0-0.7-0.1-0.9-0.3
			c-4.7-4.1-25.2-23.8-8.9-42.3c0,0,12.9,0.8,14.9,7.1c1.4,4.8,2.5,9.8,3.4,14.7C690.6,265.2,691,266.4,690.2,266.8z"/>
		<path class="st21" d="M715.2,247.3c0,0-11.3-8.8-28.5,1.9l-14.1-3.6c0,0-0.6-0.2-0.3-2.3s1.9-22.8,26.5-18.2
			C713.1,227.9,721.8,237.7,715.2,247.3z"/>
		<path class="st22" d="M704.1,304.2l-0.1,0.7c-0.2,1.3-0.5,2.5-1,3.7l0,0l-4.3,0.9l-3.7-2.8l4.3-5l0.7,0.2
			C701.5,302.3,702.9,303.1,704.1,304.2L704.1,304.2z"/>
		<path class="st17" d="M682.1,292.4c-1.7,1.1-3,2.5-4.1,4.2c1.8,0.8,3.5,1.7,5.2,2.7c2.2,1.4,12.9,8.9,12.9,8.9l3.1-6.5
			C699.3,301.8,688.1,294.1,682.1,292.4z"/>
		<path class="st17" d="M699.3,301.8c0,0,3.7,1.3,4.9,4.1c0,0,1.9-3.7-0.5-10.2c-1.1-1-2.3-1.9-3.6-2.6L699.3,301.8z"/>
		<path class="st23" d="M669.5,418.2c0.8,1,1.6,2,2.6,2.8c0.6,0.3,0.7-0.4,0.5-0.9C672.4,419.7,669.6,417.5,669.5,418.2z"/>
		<path class="st19" d="M682.3,286L682.3,286c-0.4,0-0.8-0.1-1-0.3c-4.7-4.1-25.2-23.8-8.9-42.3c-0.5,1.9-0.6,3.9-0.5,5.9
			C671.9,249.2,661.5,266.1,682.3,286z"/>
		<ellipse class="st24" cx="692.3" cy="680.4" rx="67.6" ry="5.1"/>
		<path class="st21" d="M658.9,660.8c0.9,3.4,0.6,4.6,0.9,6.9c0.4,2.8,3,3.8,4.4,6c1.6,2.5,4.2,6.5-5.8,6.7
			c-10.6,0.2-16.9-0.5-15.1-6.5c1.8-6,2.2-8.7,2-10.6c-0.1-2,0-4,1.2-5.2C647.8,656.9,657.4,654.8,658.9,660.8z"/>
		<path class="st16" d="M661.2,469.7c0,0-16.8-26.8,7-64.1c0,0,18.6,8.3,33.4,9.3c11.7,0.8,17.7-0.4,17.7-0.4s1,35.9,1,55.2H661.2
			L661.2,469.7z"/>
		<path class="st16" d="M672.5,547.6c4.6-19.4-14.5-22.8-20.5-8.8c-8.5,19.8-7.8,106.8-7.4,119.5c0.1,1.7,0.9,1.3,1.8,1
			c2.7-1,5-1.4,6.1-1.1c2.2,0.7,4.3,1.5,6.3,2.6C660.6,643.5,668,566.3,672.5,547.6z"/>
		<path class="st16" d="M689.6,472.3c2-24.1-7.2-42.7-21.5-34.8c-6.1,3.3-8.3,10-9.1,16.3s-5.3,71.7-6.8,83.6
			c-3.5,26.7,16.8,19.5,19,12.1C676.7,530.9,688.5,485.4,689.6,472.3z"/>
		<path class="st16" d="M723.5,546.3c0.8-18.1-14.3-17-20.4-3c-13.2,30.3,0.1,94.8,2.8,125.2c2.9-4.9,8.5-6.6,9.9-6.5
			c1.3,0.1,2.5,0.8,3.3,1.8C718.6,626.6,722.7,565.6,723.5,546.3z"/>
		<path class="st16" d="M703.7,548.3c2.2,7.4,21.6,15.9,19.6-10.9c-0.9-11.9-3.3-77.6-3.8-83.9s-1.5-15.6-4.6-16.7
			c-15.3-5.8-30.2,13.1-26.1,36.9C691.6,489.5,699.1,533,703.7,548.3z"/>
		<path class="st21" d="M718.9,664.5c0.8,1.6,4.6,5.2,10,7.6c5.3,2.4,16.6,3.5,10.3,5.6s-13.6,0.8-17.3,0.2
			c-3.9-0.5-7.8-0.8-11.7-0.7c-5.8,0-5.8-0.4-5-6.9C706.3,661.3,716.3,659.5,718.9,664.5z"/>
		<path class="st13" d="M665,412.8l3,4.2c3.2-0.4,6.3,1.2,7.8,4.1c2.5,4.9-6.4,11-8.9,8.8c-2.5-2.3-8-12.7-8-12.7L665,412.8z"/>
		<path class="st14" d="M642.9,399.6c5.8,6.1,11.3,12.6,16.4,19.4l1.5-1l5.8-4c0,0-12-25.1-15.4-37.4c-1.5-5.1-3.9-10-7.1-14.2
			c0.2-0.2,0.4-0.4,0.7-0.7c8.7-9.3,15.5-21.2,20.6-28.5c2.5-3.5,4.2-7.5,4.9-11.8c0.5-2.9,0.5-5.8,0.1-8.7
			c-0.7-4.6-2.7-8.8-7.1-9.9c-1.6-0.4-3.3-0.3-4.9,0.4c-1.7,0.7-3.2,1.9-4.2,3.5c-6.8,11-26,40.6-29,47.9c-0.5,1.2-0.8,2.5-1,3.7
			c-0.1,0.4-0.2,0.9-0.2,1.3C623,371.8,634.9,391.6,642.9,399.6z"/>
		<path class="st15" d="M642.9,399.6c5.8,6.1,11.3,12.6,16.4,19.4l1.5-1c0,0-8.8-12.3-13-17.2c-6.4-7.6-10.9-13.5-14.7-20.5
			s-5.6-20.4-3.6-24.2c2-3.8,13.2-20.5,15.6-23.7c2.4-3.2,22.1-22.8,16.5-28.3c-0.9-0.7-2.1-1-3.2-0.8c-1.7,0.7-3.2,1.9-4.2,3.5
			c-6.8,11-26,40.6-29,47.9c-0.5,1.2-0.8,2.5-1,3.7c-0.1,0.4-0.2,0.9-0.2,1.3C623,371.8,634.9,391.6,642.9,399.6z"/>
		<path class="st16" d="M674.3,417.2c0,0-2.7,9.5-14.7,15c-10.4,4.7,16.6,7.4,17.2,6.4c0.6-1.1,5.8-18.5,5.8-18.5L674.3,417.2z"/>
		<path class="st9" d="M881.1,669.7l2.5-135.4h-9l2.5,135.4c-0.3,1.1,0.4,2.2,1.5,2.4c1.1,0.3,2.2-0.4,2.4-1.5
			C881.1,670.4,881.1,670,881.1,669.7z"/>
		<path class="st9" d="M798.3,653.9L850.6,529l-8.4-3.3l-47.6,126.8c-0.6,0.9-0.4,2.2,0.5,2.8s2.2,0.4,2.8-0.5
			C798.1,654.5,798.2,654.2,798.3,653.9z"/>
		<path class="st9" d="M959.9,653.9L907.6,529l8.4-3.3l47.6,126.8c0.6,0.9,0.4,2.2-0.5,2.8s-2.2,0.4-2.8-0.5
			C960,654.5,959.9,654.2,959.9,653.9z"/>
		<g class="st10">
			<path d="M840.8,529.6l5.3,2.1l-49.2,123.7c0.6-0.3,1.1-0.8,1.4-1.5L850.6,529l-8.4-3.3L840.8,529.6z"/>
			<path d="M874.6,537.9h6.7l-2.5,134.3c0.1,0,0.2,0,0.2,0c1.2-0.2,2.1-1.3,2-2.5l2.5-135.4h-9L874.6,537.9z"/>
			<path d="M963.5,652.5l-47.6-126.8l-8.4,3.3l1,2.3l5.2-2.1l47.3,126c0.5,0.3,1.1,0.4,1.6,0.2C963.7,654.9,964.1,653.6,963.5,652.5
				z"/>
		</g>
		<path class="st11" d="M944.6,488c0,51.9-29.4,64.4-65.6,64.4S813.5,540,813.5,488s29.4-102.1,65.6-102.1S944.6,436.1,944.6,488z"
			/>
		<path class="st12" d="M884.3,540.7c-36.2,0-65.6-12.4-65.6-64.4c0-17.5,3.2-34.8,9.5-51c-9.2,17.9-14.8,40.2-14.8,62.7
			c0,51.9,29.4,64.4,65.6,64.4c28.4,0,52.6-7.6,61.7-36C929.3,535.2,908.4,540.7,884.3,540.7z"/>
		<path class="st25" d="M847.7,474.4c0,0-8.4,17.9-10.1,29.9c-2.5,17.5,1.2,25.1,23.6,25.8s28.9-3.7,39.6-3.7s23.1-20.2,9.3-44.2
			L847.7,474.4z"/>
		<path class="st13" d="M857.3,621.5l-0.4,6.8c0,0-6.6,19.5-6.9,24.4c-0.6,8.6,3.2,18.2,6.9,18.1c4.2-0.1,10-5.4,12.5-16.2
			c1.7-7.3-1.1-21.5-0.1-24.8s3-9.8,3-9.8L857.3,621.5z"/>
		<path class="st21" d="M869.9,650.4c-2.9,2.9-8.8,9.1-11.1,9c-2.4-0.1-6.7-7.6-8.1-10.7c-0.3,1.3-0.6,2.6-0.7,3.9
			c-0.6,8.6,3.2,18.2,6.9,18.1c4.2-0.1,10-5.4,12.5-16.2C869.6,653.2,869.8,651.8,869.9,650.4z"/>
		<path class="st26" d="M872,624.8c0,0,26.7-84.4,30.1-94.8c3.3-10.4,6-30.1-9.4-33.6c-13.4-3-19,17-21.4,29.2s-14.8,94.2-14.8,94.2
			s-1.5,4.6,6.5,5.9C870.9,627.1,872,624.8,872,624.8z"/>
		<g class="st27">
			<path d="M887.9,496.3c-5.8,7.9-8.7,22.7-10.4,31c-2.4,12.3-14.6,95.9-14.6,95.9s2.1,1.1,6.5,3c-0.7-0.1-1.4-0.1-2.1,0
				c-8.6,0.6-10.7-4.7-10.7-4.7s12.2-83.6,14.6-95.9C873.3,514.9,877.9,498.4,887.9,496.3z"/>
		</g>
		<path class="st13" d="M823.7,618.2l-0.9,6.7c0,0-8,19-8.7,23.8c-1.2,8.5,1.9,18.3,5.6,18.5c4.2,0.2,10.3-4.7,13.7-15.2
			c2.3-7.1,0.5-21.5,1.7-24.8s3.7-9.6,3.7-9.6L823.7,618.2z"/>
		<path class="st21" d="M834.3,648c-3.1,2.7-9.4,8.4-11.7,8.1c-2.4-0.3-6.1-8-7.3-11.2c-0.4,1.3-0.8,2.6-1,3.9
			c-1.2,8.5,1.9,18.3,5.6,18.5c4.2,0.2,10.3-4.7,13.7-15.2C833.8,650.8,834.1,649.4,834.3,648z"/>
		<path class="st26" d="M838.2,622.6c0,0,32.7-82.3,36.7-92.4c4.1-10.1,8.2-29.6-7-34.2c-13.1-3.9-20.1,15.6-23.4,27.6
			c-3.3,12.1-21.4,92.9-21.4,92.9s-1.8,4.5,6.1,6.4S838.2,622.6,838.2,622.6z"/>
		<g class="st27">
			<path d="M863.2,495.6c-6.4,7.5-10.3,22.1-12.6,30.2c-3.3,12.1-21.4,94.6-21.4,94.6s2,1.2,6.3,3.5c-0.7-0.1-1.4-0.2-2.1-0.2
				c-8.6,0-10.3-5.4-10.3-5.4s18.1-82.5,21.4-94.6C847.3,513.1,853.1,496.9,863.2,495.6z"/>
		</g>
		<path id="_Path_" class="st28" d="M862.1,303.8c0,0,3-12.7,24.2-8.6c20.2,3.9,19,32.1,21.3,39.8c2.1,6.1,4.5,12.2,7.2,18.1
			c0.4,0.8,0,1.7-0.8,2c0,0-0.1,0-0.2,0.1c-7.5,2.5-39.2,11.8-60.9-1.2c-1.9-1.1-3.4-2.8-4.3-4.9c-0.4-1-0.6-2-0.6-3
			c0.1-3.4,2.1-7.5,0.6-17.4S849,303.5,862.1,303.8z"/>
		<path id="_Path_2" class="st13" d="M855.8,331.1c-1.8,2.6-2.4,5.8-1.7,8.9c0.3,3.1,2.9,5.4,6,5.4l0.7-5.5l-1.5-9.8L855.8,331.1z"
			/>
		<path id="_Path_3" class="st13" d="M903.2,331.1c1.8,2.6,2.4,5.8,1.7,8.9c-0.3,3.1-2.9,5.4-6,5.4l-0.7-5.5l1.5-9.8L903.2,331.1z"
			/>
		<path id="_Path_4" class="st3" d="M906.6,439c-0.4,5.1-0.2,10.1,0.4,15.2c0.6,6.4,2.8,30.1,2.8,30.1c-4.4,1.6-8.8,2.8-13.4,3.6
			c-11.4,2.2-30.9-3.6-49.1-9.8c0,0,6.7-16.4,6.8-29.8c0-1.8,0-3.7-0.1-5.7c-0.4-4.2-1.1-8.3-1.9-12.4c-0.2-1-0.4-2.1-0.6-3.2
			c-0.7-3.9-1.4-8.3-1.8-12.7c-0.5-4.4-0.7-8.8-0.7-13.2c-1.6-11.8,2-23.5,2-23.5s15-6.2,21.3-7.1c0,0,11.2-2.6,19.1,0
			c10.3,3.4,15.9,5.4,20.6,7.9c0.5,0.3,3.5,9.1,2.2,16.8c-1.9,11.3-4.8,26.9-6.3,36.2C907.1,435.2,906.7,437.9,906.6,439z"/>
		<path id="_Path_5" class="st29" d="M909.7,487.1c-4.5-0.4-9-0.1-13.4,0.8c-3.2-8.1-2.2-37.7-2.2-37.7c-8.8-1.5-22.3-6.8-22.3-6.8
			c-3.5,1.7-14.5,4.1-17.9,4.8c0-1.8,0-3.7-0.1-5.7c-0.4-4.2-1.1-8.3-1.9-12.4c4.1-2.9,11.8,3.5,11.8,3.5l38.7-6.1
			c1.8,1.1,3.6,2.4,5.1,3.9c-0.6,3.7-1,6.5-1.1,7.6c-0.4,5.1-0.2,10.1,0.4,15.2C907.6,460.7,909.7,487.1,909.7,487.1z"/>
		<path id="_Path_6" class="st13" d="M901.5,324.7c0,5.7-1.1,18.9-4.7,27.7c-2,5-5.5,9.2-10,12c0,2.3-0.1,5.3,1.5,5.5
			c0.5,1,1,1.3,0.7,2.9c-1.1,5.7-7.6,11.9-9.3,13.5c-1.6,1.6-2.6,0-2.6,0c-1.9-2.2-3.5-4.5-4.8-7.1c-0.8-1.5-1.4-2.9-1.8-3.9
			c-0.6-1.5-0.4-3.2,0.4-4.5c1.7-0.2,1.1-4,1-6c-3.4-2.4-6.5-6.5-8.9-11.3c-4.7-9.7-5-22-5-28.7c0-12,9.8-21.8,21.8-21.8
			C891.7,302.9,901.5,312.6,901.5,324.7L901.5,324.7z"/>
		<path id="_Path_7" class="st20" d="M886.5,364.4c-1.3,0.5-6.5,2.5-7.5,4.7c-1.1,2.5-1.8,6.6-2.9,7.8c-1.1,0.9-2.4,1.7-3.8,2.1
			c-0.8-1.5-1.4-2.9-1.8-3.9c-0.6-1.5-0.4-3.2,0.4-4.5c1.7-0.2,1.1-4,1-6c2.2,0.9,4.5,1.3,6.9,1.3
			C881.4,365.7,883.9,365.2,886.5,364.4z"/>
		<path id="_Path_8" class="st13" d="M894.4,422c1.5-0.3,3-0.5,4.6-0.7c1.1,0-2.1,9.9-2.1,9.9c-0.7-0.7-1.5-1.2-2.5-1.4
			c-1.4-0.2-0.8-7.7-0.8-7.7L894.4,422z"/>
		<path id="_Path_9" class="st30" d="M911.8,378.5c0,0,9.8,5.1,9.3,12.7c-0.6,7.7-12.1,49.4-14.1,54.9s-52.2-11.2-52.2-11.2
			s1.6-6.7,2.9-8.6c0,0,34.3,3.7,38.8,5.4c0,0,7-33.2,9.1-39C907.8,386.9,911.8,378.5,911.8,378.5z"/>
		<path id="_Path_10" class="st31" d="M895.1,430.5c-5.2,2.9-44.9,19.4-48.5,18.4s-8.1-4.3-8.7-14c-0.5-8.6,4.5-42.6,5.6-50.4
			c0.2-1.2,0.7-2.4,1.5-3.4c0.2-0.3,0.5-0.5,0.8-0.7c1.6-1.2,3.3-2.1,5.1-2.8c0.5,1.1,0.4,5.7,1,13.8c0.1,0.9,0,1.8-0.2,2.7
			c-1,4.7-2.2,10.8-2.1,14.1c0,0.2,0,0.4,0,0.6c0.3,3.4,2.9,9.9,2.9,12.6c0.1,6.4,0.1,7.4,0,7.5c1.4-0.2,6.4-1.1,12.4-2.2
			c12.5-2.2,29.6-5.3,29.6-5.3C896,424.5,895.1,430.5,895.1,430.5z"/>
		<path id="_Path_11" class="st28" d="M853.5,333.2c0,0,6.9-1.2,10.9-6.3c2.1-2.9,3.7-6.2,4.8-9.6c0,0,2.4,5.2,10.5,8.9
			c7.9,3.6,16.4,6,25.1,7.1c0,0,0.5-18.8-5.6-26.5c-6.2-7.6-22.2-12.1-33.1-5.4C855.2,307.9,853.5,333.2,853.5,333.2z"/>
		<path id="_Path_12" class="st32" d="M871,370.5c0,0,1.1,10.2,6.1,15.6c0,0-1.7-0.5-4.7,3.2c-0.3,0.3-0.8,0.4-1.1,0.1
			c-0.1-0.1-0.2-0.3-0.3-0.4c-1-4.1-4.1-14.2-2.3-17.7C869.2,370.6,870.1,370.3,871,370.5z"/>
		<path id="_Path_13" class="st32" d="M888.1,369.8c-0.8,3-1.8,5.9-3.1,8.7c-1.4,2.9-3.3,5.6-5.6,7.9c0,0,3.9,0.7,5.6,3.3
			c0.2,0.3,0.6,0.3,0.9,0.1c0.1-0.1,0.2-0.2,0.2-0.3c1.2-2.2,1.8-4.3,3.1-8.9c1.5-5.2,1.5-8.1,1.4-10.3
			C890,369.6,889,369.4,888.1,369.8z"/>
		<path id="_Path_14" class="st29" d="M849.8,431.5c-4-3.4,0.8-10,0.4-12.3c-0.3-2.3-0.3-2.7-0.6-5c-0.3-1.8-0.2-3.7,0-5.6
			c0.3,3.4,2.9,9.9,2.9,12.6c0.1,6.4,0.1,7.4,0,7.5c1.4-0.2,14.7-2.6,20.8-3.7C874.7,425.9,852.5,433.8,849.8,431.5z"/>
		<path id="_Path_15" class="st13" d="M856.8,428.1l-4.3,0.7c-2.6-0.2-5.3-0.3-8-0.2c-2.1,0.2-4.1,0.6-6.1,1.3
			c-0.4,0.1-0.9-0.2-1-0.6c0,0,0,0,0-0.1c-0.4-1.4-0.6-2.9-0.5-4.4c0.2-1.4,0.5-2.9,1.1-4.2c0.2-0.4,0.6-0.8,1-0.9
			c1.6-0.6,3.5-0.5,6.2-0.3c2.5,0.1,4.8,1.2,6.3,3.2l1.7,2.1c0.6,0.7,1.3,1.1,2.2,1.3l2.1,0.4c0,0-0.2,0.4-0.4,0.8
			C857,427.5,856.9,427.8,856.8,428.1z"/>
		<polygon class="st33" points="771.5,469.4 773.5,431.3 754.8,431.3 756.8,469.4 		"/>
		<polygon class="st34" points="758.5,467.6 756.8,433.1 771.6,433.1 769.8,467.6 		"/>
		<polygon class="st35" points="757.3,441.6 758.5,467.6 769.8,467.6 771,441.6 		"/>
		<g class="st36">
			<path class="st1" d="M759.7,463.9h3.1l-1.8-27.2c-0.4-3.3-3.4-3.5-3,0.3L759.7,463.9z"/>
		</g>
		<rect x="711.7" y="474.6" class="st37" width="86.3" height="5.4"/>
		<rect x="712.5" y="469.2" class="st38" width="78.1" height="4.3"/>
		<rect x="708.4" y="472.5" class="st39" width="86.3" height="2.1"/>
		<rect x="714.1" y="470.9" class="st40" width="74.9" height="0.4"/>
		<rect x="714.1" y="471.8" class="st40" width="74.9" height="0.4"/>
		<rect x="714.1" y="469.9" class="st40" width="74.9" height="0.4"/>
		<rect x="1101.1" y="470.1" class="st41" width="35.6" height="8.8"/>
		<rect x="1125.5" y="470.1" class="st42" width="11.2" height="8.8"/>
		<rect x="1098.9" y="470.1" class="st42" width="35.6" height="1"/>
		<rect x="1098.9" y="478" class="st42" width="35.6" height="1"/>
		<rect x="1126.4" y="470.1" class="st43" width="46.5" height="8.8"/>
		<rect x="1131.4" y="472.2" class="st42" width="24.9" height="4.7"/>
		<rect x="1132.8" y="472.4" class="st44" width="22.2" height="4.2"/>
		<ellipse class="st42" cx="1166.4" cy="474.6" rx="2.9" ry="2.4"/>
		<rect x="1103.2" y="471.7" class="st42" width="20.3" height="0.9"/>
		<rect x="1103.2" y="475.2" class="st42" width="20.3" height="0.9"/>
		<rect x="1103.2" y="476.5" class="st42" width="20.3" height="0.9"/>
		<rect x="1109.6" y="473.7" class="st42" width="12.7" height="0.9"/>
		<rect x="1103.2" y="473.7" class="st42" width="5.4" height="0.9"/>
		<rect x="1094.4" y="461.5" class="st41" width="35.6" height="8.8"/>
		<rect x="1118.8" y="461.5" class="st42" width="11.2" height="8.8"/>
		<rect x="1092.2" y="461.5" class="st42" width="35.6" height="1"/>
		<rect x="1092.2" y="469.3" class="st42" width="35.6" height="1"/>
		<rect x="1119.7" y="461.5" class="st45" width="46.5" height="8.8"/>
		<rect x="1124.7" y="463.6" class="st42" width="24.9" height="4.7"/>
		<rect x="1126.1" y="463.8" class="st44" width="22.2" height="4.2"/>
		<ellipse class="st42" cx="1159.7" cy="465.9" rx="2.9" ry="2.4"/>
		<rect x="1096.5" y="463.1" class="st42" width="20.3" height="0.9"/>
		<rect x="1096.5" y="466.6" class="st42" width="20.3" height="0.9"/>
		<rect x="1096.5" y="467.8" class="st42" width="20.3" height="0.9"/>
		<rect x="1102.9" y="465.1" class="st42" width="12.7" height="0.9"/>
		<rect x="1096.5" y="465.1" class="st42" width="5.4" height="0.9"/>
		<rect x="1101.1" y="452.9" class="st41" width="35.6" height="8.8"/>
		<rect x="1125.5" y="452.9" class="st42" width="11.2" height="8.8"/>
		<rect x="1098.9" y="452.9" class="st42" width="35.6" height="1"/>
		<rect x="1098.9" y="460.7" class="st42" width="35.6" height="1"/>
		<rect x="1126.4" y="452.9" class="st46" width="46.5" height="8.8"/>
		<rect x="1131.4" y="454.9" class="st42" width="24.9" height="4.7"/>
		<rect x="1132.8" y="455.2" class="st44" width="22.2" height="4.2"/>
		<ellipse class="st42" cx="1166.4" cy="457.3" rx="2.9" ry="2.4"/>
		<rect x="1103.2" y="454.5" class="st42" width="20.3" height="0.9"/>
		<rect x="1103.2" y="457.9" class="st42" width="20.3" height="0.9"/>
		<rect x="1103.2" y="459.2" class="st42" width="20.3" height="0.9"/>
		<rect x="1109.6" y="456.5" class="st42" width="12.7" height="0.9"/>
		<rect x="1103.2" y="456.5" class="st42" width="5.4" height="0.9"/>
		<polygon class="st33" points="1176,478.7 1178,449.5 1159.4,449.5 1161.3,478.7 		"/>
		<polygon class="st34" points="1163,476.9 1161.3,451.3 1176.1,451.3 1174.3,476.9 		"/>
		<polygon class="st35" points="1161.8,459.7 1163,476.9 1174.3,476.9 1175.5,459.7 		"/>
		<g class="st36">
			<path class="st1" d="M1164.2,473.2h3.1l-1.8-18.4c-0.4-3.3-3.4-3.5-3,0.3L1164.2,473.2z"/>
		</g>
		<path class="st47" d="M800,449c0.8,6.5,5.1,12.1,11.2,14.5c0,0,0.1,0,0.1-0.1v-0.1c-5.9-2.8-10.3-7.7-11.1-14.3
			C800.1,448.9,800,448.9,800,449L800,449L800,449z"/>
		<path class="st47" d="M810.7,439.2c3.5,7.9,1.9,17.2-4,23.5v0.1h0.1c6.1-6.3,7.7-15.7,4-23.7C810.8,439,810.7,439.1,810.7,439.2
			L810.7,439.2L810.7,439.2z"/>
		<path class="st47" d="M827.8,442.9c3.2,4,1.4,8.7-0.6,12.8c-1.8,3.6-5.4,5.4-8.9,6.9c-0.1,0-0.1,0.1-0.1,0.2s0.1,0.1,0.2,0.1
			c4.5-1.6,7.9-4.1,9.8-8.6c1.7-4,2.7-7.9-0.2-11.5C827.9,442.6,827.7,442.8,827.8,442.9L827.8,442.9L827.8,442.9z"/>
		<path class="st47" d="M825.9,455.8c3,0.5,6.1-0.8,7.9-3.2c0-0.1,0-0.1-0.1-0.1h-0.1c-1.9,2.2-4.8,3.4-7.7,3.2
			C825.9,455.6,825.9,455.7,825.9,455.8C825.9,455.7,825.9,455.8,825.9,455.8L825.9,455.8L825.9,455.8z"/>
		<path class="st47" d="M817.7,440.6c-0.5,4.4-1.7,11.9-6.1,14c0,0-0.1,0.1,0,0.1c0,0,0.1,0.1,0.1,0c4.7-1.7,5.8-10.1,6.2-14.2
			C817.9,440.5,817.7,440.5,817.7,440.6L817.7,440.6L817.7,440.6z"/>
		<path class="st47" d="M792,446.7c0.7,5.1,5.1,8.8,10.2,8.6c0,0,0.1,0,0.1-0.1s0-0.1-0.1-0.1c-5,0-9.3-3.6-10.1-8.5
			C792.1,446.6,791.9,446.6,792,446.7L792,446.7L792,446.7z"/>
		<path class="st3" d="M833.2,458.5h-36.9c0,0-3,7.2-3,9s4.1,5.4,8.5,5.4h26c4.4,0,8.5-3.6,8.5-5.4
			C836.2,465.7,833.2,458.5,833.2,458.5z"/>
		<polygon class="st31" points="829.2,474.8 800.2,474.8 801.2,472.9 828.2,472.9 		"/>
		<path class="st31" d="M804.5,467.5c0-1.8,3-9,3-9h-11.2c0,0-3,7.2-3,9s4.1,5.4,8.5,5.4H813C808.5,472.9,804.5,469.3,804.5,467.5z"
			/>
		<polygon class="st48" points="801.2,472.9 800.2,474.8 811.4,474.8 812.4,472.9 		"/>
		<path class="st49" d="M813.3,445.1c0.8-0.7,4.1-1.8,6.4-0.4c2.7,1.6,4.4,4.4,4.6,7.5c-2,0.5-4.1,0.7-6.1,0.6
			C811.3,452.2,811.8,446.3,813.3,445.1z"/>
		<path class="st49" d="M830.2,441.4c0.6-0.5,2.8-1.4,4.4-0.5c1.9,1,3.1,2.9,3.4,5c-1.4,0.4-2.8,0.6-4.2,0.6
			C829,446.4,829.1,442.3,830.2,441.4z"/>
		<path class="st49" d="M828.6,439c-1-0.5-2.1-0.4-3,0.2c-1.1,0.9-1.7,2.4-1.6,3.8c1,0.1,1.9,0,2.9-0.1
			C830.1,442.2,829.4,439.5,828.6,439z"/>
		<path class="st49" d="M795.8,442.5c-0.7-0.3-1.5-0.5-2.3-0.4c-1.7,0.3-2.9,2-2.5,3.7c0,0.2,0.1,0.4,0.2,0.5
			c0.5,0.9,1.4,1.4,2.4,1.4c1.9,0.2,4.1-1.2,6-1.8C798.7,444.4,797.4,443.2,795.8,442.5z"/>
		<path class="st49" d="M800.7,447.3c-0.8,0.4-1.3,1.2-1.4,2.1c0.2,1.1,1.2,1.9,2.3,1.8c1.1,0.1,4.9-1,6.6-0.2
			C805.4,445.7,802.5,446.2,800.7,447.3z"/>
		<path class="st49" d="M833.3,449.2c-0.7,0.3-1.2,0.9-1.4,1.6c-0.1,0.9,0.5,1.7,1.4,1.9c0.8,0.2,3.8-0.1,4.9,0.8
			C838.1,449.4,834.7,448.5,833.3,449.2z"/>
		<path class="st49" d="M812.7,454.5c0.9-0.3,4.2-0.5,5.6,1.2c2.5,3.3,0.4,6.1,0.1,7.1c-1.8-0.3-3.5-0.7-5.1-1.4
			C807.8,458.8,809.7,455,812.7,454.5z"/>
		<path class="st49" d="M800.7,455.1c-0.8-0.3-3.5-0.2-4.6,1.5c-1.4,2.1-1.7,4.7-0.9,7.1c1.6-0.2,3.1-0.7,4.5-1.3
			C804.4,460,802.1,455.6,800.7,455.1z"/>
		<path class="st49" d="M809.5,438.9c0.8,0.1,1.6,0.7,1.9,1.4c0.3,1-0.2,2.1-1.1,2.5c-0.8,0.4-4.4,0.8-5.3,2.1
			C805.1,439,807.6,438.4,809.5,438.9z"/>
		<g class="st7">
			<path class="st50" d="M790.9,444.7c2.9-0.2,5.9,0.3,8.5,1.5c0,0,0.1,0,0-0.1C796.8,444.9,793.8,444.3,790.9,444.7
				C790.9,444.6,790.9,444.7,790.9,444.7L790.9,444.7L790.9,444.7z"/>
			<path class="st50" d="M791.9,444c2.2-0.7,4.5-0.4,6.5,0.7c0,0,0,0,0.1,0l0,0C796.5,443.4,794.1,443.1,791.9,444L791.9,444
				L791.9,444L791.9,444L791.9,444z"/>
			<path class="st50" d="M791.4,445.1c0.9,2,4.3,1.8,6,1.3c0,0,0,0,0-0.1c0,0,0,0-0.1,0C795.7,446.7,792.4,447,791.4,445.1
				C791.5,445,791.4,445,791.4,445.1L791.4,445.1L791.4,445.1z"/>
			<path class="st50" d="M800.1,448.1c2.8-1.2,6-0.1,7.5,2.6l0,0l0,0l0,0C806.3,447.9,802.9,446.8,800.1,448.1L800.1,448.1
				L800.1,448.1L800.1,448.1L800.1,448.1z"/>
			<path class="st50" d="M800.5,448.5c2.3,0.3,4.6,0.9,6.7,1.9l0,0C805.2,449.3,802.9,448.7,800.5,448.5
				C800.5,448.4,800.5,448.5,800.5,448.5L800.5,448.5L800.5,448.5z"/>
			<path class="st50" d="M799.8,449.1c2.2,1.3,4.7,1.8,7.2,1.6c0.1,0,0.1-0.1,0-0.1C804.5,450.8,802,450.3,799.8,449.1L799.8,449.1
				L799.8,449.1L799.8,449.1L799.8,449.1z"/>
			<path class="st50" d="M805.2,444.7c1.3-2,3-3.7,5.2-4.8c0,0,0,0,0-0.1c0,0,0,0-0.1,0C808.1,440.8,806.3,442.5,805.2,444.7
				C805.1,444.7,805.1,444.7,805.2,444.7C805.1,444.7,805.1,444.7,805.2,444.7L805.2,444.7L805.2,444.7z"/>
			<path class="st50" d="M807.4,443.6c1.7-0.7,3.2-1.9,4-3.6c0,0,0,0,0-0.1c0,0,0,0-0.1,0C810.4,441.6,809,442.9,807.4,443.6
				C807.3,443.6,807.3,443.7,807.4,443.6L807.4,443.6L807.4,443.6z"/>
			<path class="st50" d="M805.2,443.2c0.6-2.2,2.5-3.8,4.8-3.9c0,0,0,0,0-0.1l0,0C807.7,439.3,805.7,440.9,805.2,443.2
				C805.1,443.2,805.1,443.3,805.2,443.2C805.2,443.3,805.2,443.3,805.2,443.2L805.2,443.2L805.2,443.2z"/>
			<path class="st50" d="M824.4,443.2c0.9-1.5,2.3-2.7,3.8-3.6c0,0,0,0,0-0.1s0,0-0.1,0C826.5,440.3,825.2,441.5,824.4,443.2
				C824.3,443.1,824.3,443.2,824.4,443.2C824.3,443.2,824.4,443.2,824.4,443.2L824.4,443.2z"/>
			<path class="st50" d="M826,442.4c1.3-0.5,2.3-1.4,3-2.6c0,0,0,0,0-0.1c0,0,0,0-0.1,0C828.2,440.9,827.2,441.8,826,442.4
				C825.9,442.3,826,442.4,826,442.4L826,442.4L826,442.4z"/>
			<path class="st50" d="M824.4,442.1c0.4-1.6,1.9-2.8,3.6-2.9c0,0,0,0,0-0.1l0,0C826.2,439.2,824.7,440.4,824.4,442.1
				C824.3,442.1,824.3,442.1,824.4,442.1L824.4,442.1L824.4,442.1L824.4,442.1z"/>
			<path class="st50" d="M795.4,463.2c1.5-2.9,3.6-5.5,6.2-7.6c0,0,0,0,0-0.1l0,0C798.9,457.6,796.8,460.2,795.4,463.2
				C795.3,463.2,795.4,463.3,795.4,463.2L795.4,463.2L795.4,463.2z"/>
			<path class="st50" d="M795.1,463.3c-0.6-3.8,1.9-7.4,5.7-8.1c0,0,0,0,0-0.1c0,0,0,0-0.1,0C796.9,455.8,794.4,459.5,795.1,463.3
				C795,463.4,795.1,463.4,795.1,463.3L795.1,463.3L795.1,463.3z"/>
			<path class="st50" d="M795.7,463.1c3.5-0.3,6.2-3.1,6.4-6.5H802C801.8,460,799.1,462.7,795.7,463.1
				C795.7,463.1,795.7,463.2,795.7,463.1L795.7,463.1L795.7,463.1z"/>
			<path class="st50" d="M811.5,455.2c2.9,1.3,5.1,3.9,5.8,7l0,0l0,0C816.7,459.1,814.5,456.4,811.5,455.2L811.5,455.2L811.5,455.2
				L811.5,455.2z"/>
			<path class="st50" d="M811.9,455.4c3.2,0.5,6.7,1.6,6.6,5.5l0,0l0,0C818.9,456.9,815.1,455.8,811.9,455.4
				C811.9,455.3,811.9,455.4,811.9,455.4L811.9,455.4L811.9,455.4z"/>
			<path class="st50" d="M811.7,455.9c-0.7,3,2.3,4.7,4.7,5.5l0,0l0,0C814.3,460.3,811.2,459,811.7,455.9
				C811.8,455.9,811.8,455.9,811.7,455.9L811.7,455.9L811.7,455.9z"/>
			<path class="st50" d="M813.1,446.2c0.1,4.3,6.4,5.7,9.8,5.7l0,0l0,0C819.5,451.7,813.3,450.5,813.1,446.2L813.1,446.2
				L813.1,446.2L813.1,446.2z"/>
			<path class="st50" d="M813.9,446.8c3,2.1,6.2,3.8,9.6,5.2c0,0,0.1-0.1,0-0.1C820.2,450.5,817,448.8,813.9,446.8
				C813.9,446.7,813.9,446.7,813.9,446.8L813.9,446.8L813.9,446.8z"/>
			<path class="st50" d="M814,446.1c3.8,0.7,7.2,2.7,9.6,5.7c0,0.1,0.1,0,0.1-0.1C821.3,448.7,817.9,446.6,814,446.1
				C814,446,814,446.1,814,446.1L814,446.1L814,446.1z"/>
			<path class="st50" d="M814.4,445c4.8-0.3,8.9,1.5,9.4,6.8l0,0l0,0c0-2.1-1-4-2.6-5.3C819.4,444.9,816.9,444.8,814.4,445
				L814.4,445L814.4,445L814.4,445z"/>
			<path class="st50" d="M829.7,442.4c0.3,3.1,5,3.7,7.4,3.5l0,0l0,0C834.6,445.9,830.2,445.5,829.7,442.4L829.7,442.4L829.7,442.4
				L829.7,442.4L829.7,442.4z"/>
			<path class="st50" d="M830.3,442.7c2.3,1.3,4.7,2.4,7.2,3.1l0,0l0,0C835.1,445,832.6,444,830.3,442.7L830.3,442.7L830.3,442.7
				L830.3,442.7L830.3,442.7z"/>
			<path class="st50" d="M830.3,442.3c2.8,0.3,5.3,1.5,7.3,3.5h0.1c0,0,0,0,0-0.1C835.8,443.7,833.1,442.4,830.3,442.3
				C830.3,442.2,830.3,442.3,830.3,442.3L830.3,442.3L830.3,442.3z"/>
			<path class="st50" d="M830.6,441.5c3.4-0.4,6.5,0.6,7.2,4.3l0,0l0,0c-0.1-1.5-0.9-2.8-2.1-3.6C834.1,441.3,832.3,441,830.6,441.5
				C830.5,441.5,830.5,441.5,830.6,441.5C830.5,441.5,830.6,441.5,830.6,441.5L830.6,441.5L830.6,441.5z"/>
			<path class="st50" d="M832,451c0.3,0.6,0.9,1,1.5,1.1c0.6,0.2,1.3,0.1,1.9,0.2c0.9,0.2,1.8,0.5,2.6,1.1l0,0l0,0
				c-0.9-0.6-2-1-3-1.2C833.9,452,832.7,452.1,832,451C832,450.9,832,450.9,832,451C832,450.9,832,451,832,451L832,451L832,451z"/>
			<path class="st50" d="M832.4,450.4c2.1,0,4.2,1,5.5,2.7l0,0l0,0C836.6,451.4,834.5,450.3,832.4,450.4
				C832.4,450.4,832.3,450.4,832.4,450.4C832.3,450.4,832.4,450.4,832.4,450.4L832.4,450.4L832.4,450.4z"/>
			<path class="st50" d="M833,450c1.9-0.7,4,0.3,4.7,2.2c0,0.1,0.1,0.3,0.1,0.4l0,0l0,0c-0.4-2-2.4-3.2-4.4-2.8
				C833.3,449.9,833.2,449.9,833,450L833,450L833,450L833,450z"/>
		</g>
		<path class="st50" d="M792.5,448.6c-0.8-0.7-3.8-1.8-5.8-0.4c-2.5,1.8-4.2,4.6-4.5,7.8c1.9,0.4,3.9,0.5,5.9,0.3
			C794.4,455.7,793.9,449.8,792.5,448.6z"/>
		<path class="st50" d="M827.4,442c-0.6-0.4-3.1-1.1-4.5,0.1c-1.8,1.5-2.7,3.8-2.6,6.1c1.4,0.2,2.9,0.2,4.3,0
			C829.4,447.3,828.6,442.9,827.4,442z"/>
		<path class="st50" d="M812.2,435.1c-0.7,0.3-1.2,0.9-1.4,1.6c-0.1,0.9,0.5,1.7,1.4,1.9c0.8,0.2,3.8-0.1,4.9,0.8
			C817.1,435.3,813.7,434.4,812.2,435.1z"/>
		<path class="st50" d="M826.3,454.8c0.7-0.4,3.6-1.3,5.2-0.2c3,2.2,1.7,5,1.7,5.9c-1.6,0.2-3.2,0.1-4.9-0.1
			C823,459.4,823.8,455.9,826.3,454.8z"/>
		<path class="st49" d="M782.6,455.7c1.3-0.8,2.4-1.7,3.4-2.8c1.6-1.6,3.5-2.8,5.7-3.6c0.1,0,0-0.1,0-0.1
			C787.8,450.3,785.9,453.7,782.6,455.7C782.5,455.6,782.5,455.6,782.6,455.7C782.5,455.7,782.5,455.7,782.6,455.7L782.6,455.7
			L782.6,455.7L782.6,455.7z"/>
		<path class="st49" d="M782.6,455.2c0.9-1.5,1.9-3,3-4.4c1.6-1.8,3.6-2.2,5.9-2.2c0.1,0,0.1-0.1,0-0.1
			C786.6,447.8,784.7,451.7,782.6,455.2C782.5,455.2,782.5,455.2,782.6,455.2C782.5,455.3,782.5,455.3,782.6,455.2L782.6,455.2
			L782.6,455.2z"/>
		<path class="st49" d="M783.8,455.9c3.6-0.2,9.8-0.9,8.8-6.1c0,0-0.1-0.1-0.1,0c0,0,0,0,0,0.1c0,1.6-0.2,3.3-1.6,4.3
			C789,455.5,785.9,455.6,783.8,455.9C783.7,455.8,783.7,455.9,783.8,455.9L783.8,455.9L783.8,455.9z"/>
		<path class="st49" d="M782.9,455.7c1.9-0.6,3.9-1,5.7-1.8s2.5-2.3,3.4-4v-0.1h-0.1c-1.2,2-2.2,3.5-4.5,4.3
			C786,454.8,784.4,455.1,782.9,455.7C782.9,455.7,782.9,455.8,782.9,455.7L782.9,455.7L782.9,455.7z"/>
		<path class="st49" d="M812,436.3c1.8,0.5,3.4,1.4,4.7,2.7l0,0l0,0C815.5,437.5,813.8,436.6,812,436.3
			C812,436.2,812,436.2,812,436.3C812,436.2,812,436.3,812,436.3L812,436.3z"/>
		<path class="st49" d="M811.3,436.8c0.2,0.5,0.6,0.8,1.2,0.9c1.1,0.4,2.2,0.7,3.4,1l0,0l0,0c-0.7-0.3-1.4-0.5-2.2-0.7
			C812.9,437.7,811.7,437.6,811.3,436.8C811.4,436.7,811.3,436.7,811.3,436.8L811.3,436.8L811.3,436.8z"/>
		<path class="st49" d="M812,435.9c2.1-0.4,4.1,0.8,4.9,2.8h0.1C816.3,436.6,814.1,435.4,812,435.9C811.9,435.9,811.9,436,812,435.9
			L812,435.9L812,435.9z"/>
		<path class="st49" d="M820.8,448.1c2.2-1.5,4.3-3.1,6.4-4.7l0,0l0,0C824.9,444.8,822.9,446.6,820.8,448.1
			C820.7,448.1,820.8,448.1,820.8,448.1L820.8,448.1L820.8,448.1z"/>
		<path class="st49" d="M821.3,448c2.4-0.4,5.2-1.9,6.1-4.3l0,0l0,0C826.2,446,823.9,447.6,821.3,448L821.3,448L821.3,448L821.3,448
			z"/>
		<path class="st49" d="M820.7,447.8c1.2-2.3,3.3-4.1,5.8-4.8l0,0l0,0C823.9,443.6,821.8,445.4,820.7,447.8
			C820.6,447.8,820.6,447.8,820.7,447.8C820.6,447.8,820.7,447.8,820.7,447.8L820.7,447.8L820.7,447.8z"/>
		<path class="st49" d="M821.8,448.1c1.7,0.1,3.4-0.3,4.8-1.2c1-0.6,1.4-1.7,1-2.8h-0.1C828.6,447.3,823.9,448,821.8,448.1
			L821.8,448.1L821.8,448.1L821.8,448.1z"/>
		<path class="st49" d="M820.5,447.3c0.7-2.9,2.6-5.2,5.8-5c0.1,0,0.1-0.1,0-0.1C823,441.9,821,444.5,820.5,447.3
			C820.4,447.3,820.4,447.4,820.5,447.3C820.5,447.4,820.5,447.4,820.5,447.3L820.5,447.3L820.5,447.3z"/>
		<path class="st49" d="M827.1,455.1c2.2,1.4,4.1,3.2,5.8,5.2c0,0,0.1,0,0,0C831.3,458.3,829.3,456.5,827.1,455.1L827.1,455.1
			L827.1,455.1L827.1,455.1z"/>
		<path class="st49" d="M827.4,455c2.7,0.4,4.9,2.4,5.7,5l0,0l0,0l0,0C832.4,457.3,830.1,455.3,827.4,455
			C827.3,454.9,827.3,455,827.4,455L827.4,455z"/>
		<path class="st49" d="M827.9,454.8c1.4-0.2,2.8,0.2,3.9,1.1c0.9,0.9,1.3,2.1,1.2,3.3l0,0l0,0c0.1-1.2-0.3-2.5-1.2-3.4
			C830.8,455,829.3,454.6,827.9,454.8L827.9,454.8L827.9,454.8L827.9,454.8z"/>
		<path class="st49" d="M826.9,455.2c-1.7,2.4,4.3,4.8,5.8,5.2l0,0l0,0C831.3,459.9,825.4,457.5,826.9,455.2
			C827,455.2,826.9,455.1,826.9,455.2L826.9,455.2z"/>
		<path class="st49" d="M826.2,455.4c-0.9,0.6-1.1,1.8-0.5,2.6c0.1,0.1,0.2,0.2,0.3,0.3c1.3,1.5,3.7,2,5.6,2l0,0l0,0
			c-1.1,0-2.3-0.3-3.4-0.7C826.8,459.1,823.9,457,826.2,455.4C826.3,455.5,826.3,455.4,826.2,455.4
			C826.3,455.4,826.2,455.4,826.2,455.4L826.2,455.4L826.2,455.4z"/>
		<rect x="730.7" y="486.3" class="st51" width="10.3" height="202.6"/>
		<rect x="1154.6" y="486.3" class="st51" width="10.3" height="202.6"/>
		<rect x="709.8" y="480.4" class="st51" width="476" height="8.9"/>
		<rect x="704.8" y="478.6" class="st8" width="486" height="4"/>
		<rect x="789.3" y="476.5" class="st39" width="102.7" height="2.1"/>
		<path class="st38" d="M887.7,473.9c0,0-40.6-2.4-46.6,1.8c-8.2-3.7-47.5-1.8-47.5-1.8v2.7h94.1V473.9z"/>
		<path class="st40" d="M887.7,475.7c-3.9-0.3-7.8-0.6-11.7-0.8c-3.9-0.2-7.8-0.4-11.7-0.5s-7.8-0.1-11.7,0c-2,0.1-3.9,0.2-5.8,0.4
			c-1,0.1-1.9,0.3-2.9,0.5c-0.9,0.2-1.8,0.5-2.7,1l-0.1,0.1H841c-0.9-0.4-1.8-0.6-2.8-0.8c-1-0.2-1.9-0.3-2.9-0.4
			c-2-0.2-3.9-0.3-5.9-0.4c-4-0.2-7.9-0.1-11.9-0.1s-7.9,0.2-11.9,0.4c-4,0.2-7.9,0.4-11.9,0.7c7.9-0.7,15.9-1.2,23.8-1.4
			c4-0.1,8-0.1,11.9,0c2,0.1,4,0.2,6,0.4c1,0.1,2,0.2,3,0.4c1,0.2,2,0.5,2.9,0.8h-0.2c0.9-0.5,1.8-0.9,2.8-1c1-0.2,1.9-0.4,2.9-0.5
			c2-0.2,3.9-0.3,5.9-0.4c3.9-0.1,7.8-0.1,11.7,0.1C872.1,474.3,879.9,474.9,887.7,475.7z"/>
		<path class="st40" d="M887.7,475.7c-3.9-0.1-7.8-0.2-11.7-0.2c-3.9-0.1-7.8-0.1-11.7-0.2c-3.9,0-7.8,0-11.7,0.1
			c-1.9,0-3.9,0.1-5.8,0.2c-1,0.1-1.9,0.1-2.9,0.2s-1.9,0.2-2.8,0.5H841h-0.1c-1-0.2-1.9-0.3-2.9-0.3c-1-0.1-2-0.1-2.9-0.1
			c-2-0.1-3.9-0.1-5.9-0.1c-3.9,0-7.9,0-11.8,0l-23.6,0.3l11.8-0.4l11.8-0.2c3.9-0.1,7.9-0.1,11.8-0.1c2,0,3.9,0,5.9,0.1
			c1,0,2,0.1,3,0.1s2,0.1,3,0.3H841c1-0.3,1.9-0.4,2.9-0.5s1.9-0.2,2.9-0.2c1.9-0.1,3.9-0.2,5.8-0.2c3.9-0.1,7.8,0,11.7,0
			s7.8,0.1,11.7,0.2C879.9,475.3,883.8,475.5,887.7,475.7z"/>
		<rect x="936.5" y="476.5" class="st39" width="102.7" height="2.1"/>
		<path class="st38" d="M1034.9,473.9c0,0-40.6-2.4-46.6,1.8c-8.2-3.7-47.5-1.8-47.5-1.8v2.7h94.1V473.9L1034.9,473.9z"/>
		<path class="st40" d="M1034.9,475.7c-3.9-0.3-7.8-0.6-11.7-0.8c-3.9-0.2-7.8-0.4-11.7-0.5s-7.8-0.1-11.7,0c-2,0.1-3.9,0.2-5.8,0.4
			c-1,0.1-1.9,0.3-2.9,0.5c-0.9,0.2-1.8,0.5-2.7,1l-0.1,0.1h-0.1c-0.9-0.4-1.8-0.6-2.8-0.8c-1-0.2-1.9-0.3-2.9-0.4
			c-2-0.2-3.9-0.3-5.9-0.4c-4-0.2-7.9-0.1-11.9-0.1c-4,0.1-7.9,0.2-11.9,0.4c-4,0.2-7.9,0.4-11.9,0.7c7.9-0.7,15.9-1.2,23.8-1.4
			c4-0.1,8-0.1,11.9,0c2,0.1,4,0.2,6,0.4c1,0.1,2,0.2,3,0.4c1,0.2,2,0.5,2.9,0.8h-0.2c0.9-0.5,1.8-0.9,2.8-1c1-0.2,1.9-0.4,2.9-0.5
			c2-0.2,3.9-0.3,5.9-0.4c3.9-0.1,7.8-0.1,11.7,0.1C1019.3,474.3,1027.1,474.9,1034.9,475.7z"/>
		<path class="st40" d="M1034.9,475.7c-3.9-0.1-7.8-0.2-11.7-0.2c-3.9-0.1-7.8-0.1-11.7-0.2c-3.9,0-7.8,0-11.7,0.1
			c-1.9,0-3.9,0.1-5.8,0.2c-1,0.1-1.9,0.1-2.9,0.2s-1.9,0.2-2.8,0.5h-0.1h-0.1c-1-0.2-1.9-0.3-2.9-0.3c-1-0.1-2-0.1-2.9-0.1
			c-2-0.1-3.9-0.1-5.9-0.1c-3.9,0-7.9,0-11.8,0l-23.6,0.3l11.8-0.4l11.8-0.2c3.9-0.1,7.9-0.1,11.8-0.1c2,0,3.9,0,5.9,0.1
			c1,0,2,0.1,3,0.1s2,0.1,3,0.3h-0.1c1-0.3,1.9-0.4,2.9-0.5s1.9-0.2,2.9-0.2c1.9-0.1,3.9-0.2,5.8-0.2c3.9-0.1,7.8,0,11.7,0
			s7.8,0.1,11.7,0.2C1027.1,475.3,1031,475.5,1034.9,475.7z"/>
		<polygon class="st13" points="1088.6,652.1 1090.3,662.3 1098.2,662.3 1101.5,661.8 1099.1,645.8 		"/>
		<path id="_Path_16" class="st52" d="M1100.1,649.1c-0.7,0.3-1.5,0.6-2.4,0.9c-3.3,1-6.7,1.8-10.1,2.2
			c-9.3-15.3-33.6-90.1-33.6-90.1c-2.2-9.4,11.9,2.6,17.8,2.3c1.8-0.1,3.7,0.1,5.4,0.8c5.6,2.4,13.9,18.3,13.9,18.3
			s2.5,5.5,5.2,16.9C1099,612,1100.1,649.1,1100.1,649.1z"/>
		<path id="_Path_17" class="st53" d="M1100.1,649.1c-0.7,0.3-1.5,0.6-2.4,0.9c-0.6-4.5-1.5-11.8-2.8-23.4
			c-2.9-25.9-19.3-55.6-23.1-62.2c1.8-0.1,3.7,0.1,5.4,0.8c5.6,2.4,13.9,18.3,13.9,18.3s2.5,5.5,5.2,16.9S1100.1,649.1,1100.1,649.1
			z"/>
		<path id="_Path_18" class="st52" d="M1089.8,660.8c2,0,4-0.3,6-0.9c1.9-0.7,3.6-1.8,5-3.2c0,0,8.3,5.1,8.3,14.2
			c0,0.5-0.3,0.9-0.8,1.1c0,0-19.9,8.8-26.7,11.3c-3.6,1.1-7.3,2.1-11,2.8c-0.5,0.1-1-0.1-1.2-0.5c-0.4-0.9-0.5-2.5,1.5-4.1
			c3.1-2.4,6.5-4.3,8.8-6.3s4.7-7.4,6.6-8.9C1088,664.8,1089.2,662.9,1089.8,660.8z"/>
		<g>
			<g>
				<defs>
					<path id="SVGID_1_" d="M1076.8,554.1l30.2,7.2l35.7,0.2l37-9.3l66.2,123.3l-9,37.2c0,0-209,15-214.6,10.3s-31.7-30.1-35.4-40
						C983.2,673.1,1076.8,554.1,1076.8,554.1z"/>
				</defs>
				<clipPath id="SVGID_2_">
					<use xlink:href="#SVGID_1_"  style="overflow:visible;"/>
				</clipPath>
				<g class="st54">
					<path class="st9" d="M1131.1,706.1l2.9-155.4h-10.3l2.9,155.4c0,1.6,1,2.9,2.3,2.9C1130,708.9,1131,707.7,1131.1,706.1z"/>
					<path class="st9" d="M1036.1,687.9l60-143.3l-9.6-3.8l-54.6,145.5c-0.5,1.5-0.1,3,1.1,3.5S1035.5,689.4,1036.1,687.9z"/>
					<path class="st9" d="M1221.5,687.9l-60-143.3l9.6-3.8l54.6,145.5c0.5,1.5,0.1,3-1,3.5C1223.6,690.2,1222.1,689.4,1221.5,687.9z
						"/>
					<g class="st10">
						<path d="M1084.8,545.2l6.1,2.4l-56.4,142c0.7-0.4,1.3-1,1.6-1.7l60-143.3l-9.6-3.8L1084.8,545.2z"/>
						<path d="M1123.7,554.8h7.7l-2.9,154.1c0.1,0,0.2,0,0.3,0c1.2,0,2.2-1.3,2.3-2.9l2.9-155.4h-10.3V554.8z"/>
						<path d="M1225.7,686.2l-54.6-145.5l-9.6,3.8l1.1,2.6l5.9-2.4l54.3,144.6c0.5,0.4,1.2,0.4,1.8,0.2
							C1225.8,689.3,1226.3,687.7,1225.7,686.2z"/>
					</g>
				</g>
			</g>
		</g>
		<path id="_Path_19" class="st1" d="M1056,471.9h-95l-18.8-59.1c-0.8-2.4,0.6-5,3-5.8c0.5-0.1,0.9-0.2,1.4-0.2h85.3
			c2,0,3.8,1.3,4.4,3.2L1056,471.9z"/>
		<path id="_Path_20" class="st55" d="M1054.5,471.9h-90.9l-18.6-58c-0.8-2.4,0.6-4.9,3-5.7c0.5-0.1,0.9-0.2,1.4-0.2h81.3
			c2,0,3.7,1.3,4.4,3.2L1054.5,471.9z"/>
		<path id="_Path_21" class="st56" d="M997.4,418.9H956c-0.6,0-1.1-0.5-1.1-1.1l0,0l0,0c0-0.6,0.5-1.1,1.1-1.1h41.4
			c0.6,0,1.1,0.5,1.1,1.1l0,0l0,0C998.5,418.4,998,418.9,997.4,418.9z"/>
		<path id="_Path_22" class="st56" d="M1003.8,424.1h-46.2c-0.6,0-1.1-0.5-1.1-1.1l0,0l0,0c0-0.6,0.5-1.1,1.1-1.1l0,0h46.2
			c0.6,0,1.1,0.5,1.1,1.1l0,0l0,0C1004.9,423.6,1004.4,424.1,1003.8,424.1L1003.8,424.1z"/>
		<path id="_Path_23" class="st56" d="M999.5,429.3h-40.2c-0.6,0-1.1-0.5-1.1-1.1l0,0l0,0c0-0.6,0.5-1.1,1.1-1.1l0,0h40.2
			c0.6,0,1.1,0.5,1.1,1.1l0,0l0,0C1000.7,428.8,1000.2,429.3,999.5,429.3z"/>
		<path id="_Path_24" class="st56" d="M992.8,434.4h-31.9c-0.6,0-1.1-0.5-1.1-1.1l0,0l0,0c0-0.6,0.5-1.1,1.1-1.1l0,0h31.9
			c0.6,0,1.1,0.5,1.1,1.1l0,0l0,0C994,433.9,993.5,434.4,992.8,434.4L992.8,434.4z"/>
		<path id="_Path_25" class="st56" d="M1008.8,439.6h-46.2c-0.6,0-1.1-0.5-1.1-1.1l0,0l0,0c0-0.6,0.5-1.1,1.1-1.1l0,0h46.2
			c0.6,0,1.1,0.5,1.1,1.1l0,0l0,0C1010,439.1,1009.5,439.6,1008.8,439.6L1008.8,439.6z"/>
		<path id="_Path_26" class="st56" d="M1004.5,444.8h-40.2c-0.6,0-1.1-0.5-1.1-1.1l0,0l0,0c0-0.6,0.5-1.1,1.1-1.1l0,0h40.2
			c0.6,0,1.1,0.5,1.1,1.1l0,0l0,0C1005.6,444.3,1005.1,444.8,1004.5,444.8L1004.5,444.8z"/>
		<path id="_Path_27" class="st56" d="M1013.8,455.1h-46.2c-0.6,0-1.1-0.5-1.1-1.1l0,0l0,0c0-0.6,0.5-1.1,1.1-1.1l0,0h46.2
			c0.6,0,1.1,0.5,1.1,1.1l0,0l0,0C1014.9,454.6,1014.4,455.1,1013.8,455.1z"/>
		<path id="_Path_28" class="st56" d="M1015.5,460.3h-46.2c-0.6,0-1.1-0.5-1.1-1.1l0,0l0,0c0-0.6,0.5-1.1,1.1-1.1l0,0h46.2
			c0.6,0,1.1,0.5,1.1,1.1l0,0l0,0C1016.6,459.8,1016.1,460.3,1015.5,460.3L1015.5,460.3z"/>
		<path id="_Path_29" class="st56" d="M1040,460.3h-14.9c-1.4,0-2.6-0.9-3-2.2l-12.4-39.4c-0.5-1.7,0.4-3.5,2.1-4
			c0.3-0.1,0.6-0.1,1-0.1h14.9c1.4,0,2.6,0.9,3,2.2l12.4,39.4c0.5,1.7-0.4,3.5-2.1,4C1040.7,460.2,1040.4,460.3,1040,460.3z"/>
		<path id="_Path_30" class="st1" d="M1064,476.2H960.7c-1.7,0-3.1-1.4-3.1-3.1l0,0c0-1.7,1.4-3.1,3.1-3.1H1064
			c1.7,0,3.1,1.4,3.1,3.1l0,0C1067,474.8,1065.6,476.2,1064,476.2z"/>
		<g id="_Group_">
			<path id="_Compound_Path_" class="st52" d="M1093.8,394.5c-0.9,0-1.8-0.5-2.3-1.3l-3.4-6c-0.7-1.2-0.3-2.8,1-3.5h0.1l9.6-5.1
				c1.3-0.7,2.8-0.2,3.5,1l3.3,6c0.7,1.3,0.2,2.8-1,3.5l0,0l-9.4,5.1C1094.6,394.4,1094.2,394.5,1093.8,394.5z M1099.9,379.5
				c-0.2,0-0.4,0.1-0.6,0.2l-9.6,5.1c-0.7,0.4-0.9,1.2-0.6,1.9l0,0l0,0l3.4,6c0.4,0.7,1.2,0.9,1.9,0.5l9.4-5.1
				c0.7-0.4,0.9-1.2,0.6-1.9l-3.3-6C1100.9,379.7,1100.4,379.5,1099.9,379.5z"/>
		</g>
		<path id="_Path_31" class="st13" d="M1054.6,457c-0.4,0.5-0.8,1-1.2,1.4c0,0-5-3.8-6.4-4.1c-1.4-0.4-4.4,0.8-6.1,0.8
			c-1.7,0.1-1.8-0.9-1.8-0.9s-6.5,2.7-7.5,2.9s-1.7-0.1-1.1-1.7c0.3-0.6,0.7-1.1,1.2-1.6l0,0c2.2-2.5,6.7-6.5,8.4-7.3
			c2.1-1,4.9-2.4,7.2-1.6c2.3,0.8,9.7,6.4,9.7,6.4C1057.2,453.2,1055.7,455.6,1054.6,457z"/>
		<path id="_Path_32" class="st57" d="M1056.1,451.7l-1.5,5.3c-0.4,0.5-0.8,1-1.2,1.4c0,0-5-3.8-6.4-4.1c-1.4-0.4-4.4,0.8-6.1,0.8
			c-1.7,0.1-1.8-0.9-1.8-0.9s-6.5,2.7-7.5,2.9s-1.7-0.1-1.1-1.7c0.3-0.6,0.7-1.1,1.2-1.6c-0.5,0.8-1.2,1.5-0.8,2.5
			c0.4,1.2,7.4-2.1,12.4-5.2c0.1,0,0.5-0.2,0.6,0c0,0.2-0.1,0.4-0.3,0.6c-0.8,0.9-5,1.2-4.2,2.6c1.2,1.9,5.5-1.6,7.9-0.8
			c1.9,0.8,3.7,1.7,5.3,2.9C1052.6,456.4,1054,452.3,1056.1,451.7z"/>
		<path id="_Path_33" class="st58" d="M1052.6,458.4c0,0,24.6,21.5,42.9,23.7c18.4,2.2,49.4-32.7,49.4-32.7s-2-18.6-13.4-16.4
			c-11.5,2.2-26.8,29.8-33.5,31.1c-6.7,1.3-41.3-13.4-41.3-13.4c-0.9,0.7-1.6,1.6-2.1,2.6C1053.8,455,1053.1,456.6,1052.6,458.4z"/>
		<path id="_Path_34" class="st13" d="M1136.2,352.5c-6.7-7.7-16.7-8.5-24.3-7.7c-10.1,1-18.7,7.9-21.7,17.6
			c-1.4,4.8-1.3,9.9,0.5,14.5c6.3,17.3,12.8,28.3,18.9,31.6c2.3,1.3,6.8,0.4,11.6-1.3c0.6-0.2,1.3,0,1.6,0.6l2,3.8l17.7-3.8
			c-1.5-3.3-2.6-6.6-3.5-10.1C1141.5,394.5,1148.5,366.6,1136.2,352.5z"/>
		<path id="_Path_35" class="st28" d="M1100.5,377.2c2.2-0.2,4.3,1,5.1,3c1.5,3.5,3.7,8.3,5.5,9.9c0.6,0.4,1.3,0.4,1.9,0
			c0.6-0.3,0.9-0.9,0.9-1.5c-0.5-2.4-1.2-4.7-2-6.9c-1-2.4,0.1-5.1,2.4-6.1c0.3-0.1,0.7-0.3,1.1-0.3c1-0.1,1.9-0.1,2.9,0.2
			c5.2,1.6,1.6,9.8,1.5,14.1c-0.1,3,3.5,10,5.1,10.6c5.3,2.1,13.2,0.2,17.4-5c4.2-5.2,5.1-22.7,2.8-33.1
			c-2.3-10.4-10.7-16.3-13.4-17c-1.1-0.3-2.2-0.4-3.3-0.3c-0.8,0.1-1.7-0.2-2.3-0.8c-2.8-2.4-11.1-7.9-24.2-2.3
			c-11.7,4.8-19.2,16.4-18.9,29.1c0.2,4.5,3.7,4.1,6.1,3.4c1.3-0.4,2.8-0.1,3.9,0.8C1095.1,376.7,1097.8,377.5,1100.5,377.2z"/>
		<path id="_Path_36" class="st59" d="M1124.2,414.5c0,0-1.5-1.7-0.9-2.7c0.7-1.3,8.5-7.4,17.5-7.1c1.4,0.1,3.1,0.1,4.8,3.7
			c0.9,1.9,1.6,4,2.1,6.1H1124.2L1124.2,414.5z"/>
		<path id="_Path_37" class="st59" d="M1158.7,563.1c-0.5,0.1-1.1,0.3-1.8,0.4c-7.7,1.4-20.2,1.6-20.2,1.6
			c-24.7-0.4-37.1-23.4-41.1-30.3c-0.8-1.3-1.4-2.6-2-4c1.4-0.8,18.2-9.8,17.3-40.6c-0.2-6.4-0.1-20.7-3.3-26.3
			c-1.8-3.1-6.9-9.2-10.2-15.8c-2.7-5.4-4.1-11-1.1-15.2c7.2-10.6,18.7-16.3,18.7-16.3s21-8.4,38.9-6.5c11.3,1.2,21.4,6.5,24.1,20.8
			C1184.9,467.7,1158.7,563.1,1158.7,563.1z"/>
		<path id="_Path_38" class="st60" d="M1117.7,482.1c3,30.3-17.6,49.4-22.2,52.7c-0.8-1.3-1.4-2.6-2-4c1.4-0.8,17.2-14.4,17.3-40.6
			c0-6.4-0.1-20.7-3.3-26.3c-1.8-3.1-6.9-9.2-10.2-15.8l1.4-0.5l8.4-1.4l4.3,3.5C1111.5,449.7,1115.7,462.4,1117.7,482.1z"/>
		<path id="_Path_39" class="st61" d="M1158.7,563.1c-0.5,0.1-1.1,0.3-1.8,0.4c1.6-8.3,11.5-60.3,14.8-79.2
			c6.4-37.3-0.3-56.1-4-62.9c-3-5.5-8.9-8.4-13.9-11.3c11.3,1.2,21.4,6.5,24.1,20.8C1184.9,467.7,1158.7,563.1,1158.7,563.1z"/>
		<path id="_Path_40" class="st13" d="M1037.7,674.3c-1.9,0.7-3.9,1.1-5.9,1.1c-3.6,0-4.7-1.4-4.7-1.4v-8.3l11.9-1.5L1037.7,674.3z"
			/>
		<path id="_Path_41" class="st62" d="M1131.4,558.8c-0.1,5.4-1.5,13.9-9.5,16.3c-12,3.6-20.9,1.6-34.8-0.8
			c-11.7-2-42.3-8.6-48-10.8c-0.5-0.2-1.1,0.1-1.3,0.6c-0.1,0.2-0.1,0.4,0,0.6c2.7,13,4.8,18.6,6.5,38.1c1.4,16.4-4.9,62.8-4.9,62.8
			c-1.3,0.4-2.6,0.7-4,0.9c-0.8,0.1-1.5,0.2-2.3,0.2c-2.2,0-4.5-0.2-6.7-0.6c0,0-12.4-68.4-14.1-96.1s1-30,13.6-35.9
			s68.9-3.7,68.9-3.7l0,0c0.2,0.5,3.3,9.1,12.7,17C1114.4,553.2,1122.6,557.1,1131.4,558.8z"/>
		<path class="st63" d="M1097.2,535.4c-0.9-1.5-1.7-3.1-2.3-4.8l0,0c0,0-0.7,0-1.8-0.1C1094.3,532.2,1095.7,533.8,1097.2,535.4z"/>
		<path class="st63" d="M1123.6,556.6c-1.1,4.1-3.6,8-8.6,9.5c-12,3.6-20.9,1.6-34.8-0.8c-11.7-2-42.3-8.6-48-10.8
			c-0.5-0.2-1.1,0.1-1.3,0.6c-0.1,0.2-0.1,0.4,0,0.6c2.7,13,4.8,18.6,6.5,38.1c1.1,12.8,0.6,54.4,0.4,72.2c0.9-0.2,1.6-0.4,1.6-0.4
			s6.3-46.4,4.9-62.8c-1.7-19.5-3.9-25.1-6.5-38.1c-0.1-0.5,0.2-1,0.8-1.2c0.2,0,0.4,0,0.6,0c5.6,2.1,36.3,8.8,48,10.8
			c13.9,2.4,22.8,4.4,34.8,0.8c8-2.4,9.5-11,9.5-16.3C1128.8,558.3,1126.2,557.5,1123.6,556.6z"/>
		<path id="_Path_42" class="st52" d="M1026.9,672.9c1.9,0.7,3.9,1.1,5.9,1.2c2,0,4-0.4,5.8-1.2c0,0,6,7.6,2.8,16.2
			c-0.2,0.4-0.6,0.7-1.1,0.7H1000c-0.5,0-0.9-0.4-0.9-0.9c0-1,0.4-2.6,2.8-3.3c3.7-1.1,7.6-1.8,10.4-2.8s7-5.2,9.3-6
			C1023.8,675.9,1025.6,674.6,1026.9,672.9z"/>
		<path id="_Path_43" class="st13" d="M1008.7,471c0,0-3.6-0.9-5.4-1.3c-0.7-0.1-1.3-0.2-2-0.3c-0.8-0.1-1.6,0-2.4,0.1l-19.3,2.7
			c-0.6,0.1-1.1-0.3-1.1-0.9c-0.1-0.7,0.2-1.5,0.7-2l1.9-1.6l5.6-4.8c2.8-2.4,5-2.8,8.7-3c1.3,0.2,2.7,0.5,4,0.8
			c3.8,0.7,4.6,1.1,7.1,1.6c0.7,0.2,1.4,0.3,2.1,0.3c0.3,0,0.6,0,0.8,0C1010.3,465.4,1010,468.4,1008.7,471z"/>
		<path id="_Path_44" class="st14" d="M1038.1,472.9C1038.1,472.9,1038,473,1038.1,472.9c-0.6-0.2-3.6-1.4-5.2-2
			c-0.6-0.2-1.2-0.4-1.7-0.5c-0.9-0.2-1.7-0.3-2.6-0.3h-19.3c-0.6,0-1.1-0.5-1.1-1.1c0-0.7,0.4-1.4,1-1.8l2.1-1.3
			c-2,1.5-2.3,2.6-1.3,2.7c0.8,0.1,2.7-0.1,7.4-1.4c0.1,0,0.1,0.1,0.1,0.2c-0.5,0.2-0.8,0.9-0.5,1.4c0.2,0.5,0.7,0.7,1.2,0.6
			c0.8,0,4.2-0.3,5-0.3c3-0.2,7.4-0.5,8.3-0.3c1.5,0.3,2.9,0.8,4.2,1.5c0.8,0.4,1.6-0.5,1.9-1.4c0.5-1.4,1-2.9,1.7-4.2
			c0.3,0.1,0.6,0.1,0.8,0.1C1040.4,467.6,1039.7,470.5,1038.1,472.9z"/>
		<path id="_Path_45" class="st59" d="M1114.2,426.5c-2.5-1.6-10.3-5.8-20.2,9.7c-9.9,15.5-17.9,27.1-21.4,29.2s-12,0.6-15.1,0.6
			s-48.2-3.5-48.2-3.5c-1.3,2.8-2.1,5.7-2.5,8.7c0,0,41.3,10.8,66.9,10.9s45.1-38.6,46-43.3S1120.3,430.2,1114.2,426.5z"/>
		<g id="_Group_2">
			<path id="_Path_46" class="st52" d="M1089.4,390.4c-0.3,0-0.6-0.3-0.6-0.6c0-0.2,0.1-0.4,0.3-0.5l22.2-11.4
				c2.5-1.3,7.7-3.9,11.5,1.7c0.2,0.3,0.1,0.6-0.2,0.8c-0.3,0.2-0.6,0.1-0.8-0.2c-3-4.4-6.5-3-9.9-1.3l-22.3,11.4
				C1089.6,390.4,1089.5,390.4,1089.4,390.4z"/>
		</g>
		<path id="_Path_47" class="st13" d="M1111.8,379.3l2.7,8.6c1.1,1.1,2.8,1.1,3.9,0c0.1-0.1,0.2-0.2,0.2-0.3
			c2-2.3,3.8-10.4,0.1-11.7C1114.9,374.6,1112.7,376.5,1111.8,379.3z"/>
		<path class="st11" d="M1212.7,503.4c0-43.3-1-73.8-28.4-78.4c-37.3-6.2-66.5,26.1-60.5,87.9c3.4,35.5-11.1,47.6-23.5,54.5
			c-8,4.5-23.5,3.5-23.5,3.5s-7.2-0.9-12-1.3c3,1.4,66.8,32.8,112.4,9.6C1217.6,558.7,1212.7,528.9,1212.7,503.4z"/>
		<path class="st12" d="M1212.7,503.4c0-43.3-1-73.8-28.4-78.4c-1.3-0.2-2.6-0.4-3.9-0.5c-29.9,3-49.5,34.4-44.2,88.5
			c3.4,35.5-11.1,47.6-23.5,54.5c-8,4.5-23.5,3.5-23.5,3.5s-0.4-0.1-1-0.3c-3.8,0.4-7.5,0.5-11.3,0.3c0,0-7.2-0.9-12-1.3
			c3,1.4,66.8,32.8,112.4,9.6C1217.6,558.7,1212.7,528.9,1212.7,503.4z"/>
	</g>
</g>
<g>
	<path class="st1" d="M481.1,329.8c0,0-2.9,2.4-5.4,6.7l3.8,2.3l3.5-4L481.1,329.8z"/>
	<path class="st1" d="M151.5,661.5l-0.3-0.9C151.2,660.6,166.1,686.4,151.5,661.5z"/>
	<path class="st1" d="M74.2,561.5c0.7-3,5.6-16.5,7.4-20.7c1.6-3.6,6.1-25.2,8.1-37.7l-8.1-127.8l28-18.2c0,0,45.7,9.5,75.9,7.6
		c18.1-1.2,133.5-6.5,187.4-9l-0.2-2.1l16.8-1l17.1,2.7c0,0,13.5,0.9,20.7-1.3c8.8-3,16.3-4.2,16.3-4.2l2.6,7.1
		c3.6-0.6,7.4-1.5,11.4-2.5c12-3.2,10.9-32.7,24.2-37.1c9.2-3,41.2-8.9,50.1,13.4c8.2,18.8-3.1,70.9-3.1,70.9l-0.8,10.1
		c0,0-1.9,8.6-0.3,12.6c0,0,5,12.8-4.3,16.4l-29.2,0.3l-3.2-0.1c0,0-4.2,2.4-5.7,7c-8,25-33.2,104.5-44.3,108.3
		c-13.2,4.4-36.5-0.6-36.5-0.6l-8.5-4.7c0,0-44.5-17.9-56.7-16.4c-12.2,1.4-44.7,9.8-44.7,9.8l-32.2,4.2c0,0-37.5-11.2-45.8-13.3
		c-7.1-1.2-15.6-4.8-22.4-4.5c-0.1,0.1-0.5,0.1-1.5,0.3c-8.8,1.8-16.5,11.1-43.4,17.9c-5.3,0.5-9.5,22.6-10.2,25.9
		c-0.7,3.3-7.3,29.4-3.6,42.4s-1.6,14.5,14.8,42.4c0.4,0.6,0.7,1.2,1,1.8l1.2,3.7l-23.6,0.4c0,0,0.5-5.8-0.6-8.2c0,0-1.6-2-3.9,2
		c0,0-6.2-33.5-7.2-38c-0.6-2.8-3.4-18.4-5.6-29.7c-1.2-6.6-2.9-9.2-1.9-12.1c0,0-4.6,7.5-6,13.3c-1.3,5.8-4.3,27.5-3.6,31.8
		c0.7,4.3,5.1,24.8,5.1,24.8s6.7,13.8,5.4,18.6l-19.9,6.3c0,0-2.5-10.4-1.6-11.7c0.8-1.3-3.3,0.3-3.3,0.3l-1.2-0.4l-0.8-12.2
		l-1.3-28.1l-3.9-32.1C78.8,590.1,73.5,564.5,74.2,561.5z"/>
	<path class="st1" d="M410.8,557.6c0,0,0.5,9.5-10.3,42.7c-10.8,33.1-4,62.5,3.7,68l-30.8,4.8c0,0,1.1-6-0.4-6.7
		c-1.1-0.5-3.5,3-3.5,3s0.8-26.9,3-36.6c0,0,1.2-46.6-10.5-55.3c0,0-4.1-25.5-5.7-33c0,0-4.3-8.4-11.9-9.1s-5.2-7.8-5.2-7.8
		l80.2,16.9L410.8,557.6z"/>
	<path class="st64" d="M100.8,415c-5,1.4-6.9,4.5-5.7,8.7c2.8,9.7-0.1,18.2-4.4,26.6c-1.3,2.6-1,6.2-2.7,10.7
		c-1.4-10.9-3.9-21-5.2-30.3c-2.2-16.3-4.1-32.6-6.7-48.9c-1.2-7.4,1.9-12.1,7.9-15.3c6-3.2,12.1-6.2,18.5-8.5
		c3.1-1.1,7-1.2,10.4-0.6c4.1,0.6,1.8,7.1-1.6,7.5c-9.2,0.2-21.2,6.5-19.1,12.8c2.6,6,13.1-2,21.4-0.5c6.4,1.1,8.9,4.2,11.4,8.2
		c6.1,9.7-7.4,15.2-8.5,21.6c-0.9,5.4,8.4,1.8,10.5,4.4c2.2,2.7,1.9,7.4,2.8,11.2c1.8,7.8-7.3,30.5-15.3,29.7
		C95.1,450.2,110.6,411.8,100.8,415z"/>
	<path class="st64" d="M527.7,414.5c-5.6-8.8-7.2-16.2-8.2-24.3c-1.1-8.3-1.1-14.9-0.1-23.2c0.4-3.5,4-9,5.8-12.2
		c5-8.8,8.4-17.4,0.6-26.4c-0.6-0.7-0.6-2.1-0.8-3.3c0.3-1.6,1.2-1.9,2.1-1.2c1.6,2.3,3.7,4.4,4.9,6.9c4.2,8.7,8.9,10.6,17.6,6.6
		c9.6-4.4,20.8-2.2,28.3,5.4c3.8,3.9,4.4,8.2,0.3,11.8c-5.8,5.1-11.9,9.9-18.5,13.9c-2.6,1.6-6.7,1.3-10,0.9
		c-4.3-0.5-8.4-1.8-14.5-3.2C532.6,382.5,530.2,398.2,527.7,414.5z"/>
	<path class="st64" d="M477.7,427.7c3.2-14.4,14.1-31.6,13.4-45.1c-0.4-8.5-0.3-6.2-1.3-15.9c-0.8-3.5-6.5-14.3-8.6-17.3
		c-5.9-8.2-13.5-9.2-6.7-19c0.5-0.8,0.4-2.1,0.4-3.3c0-1.3-0.9-2.7-2.2-1c-1.4,2.3-3.2,4.8-4.1,7.4c-3.3,9.1-7.8,11.5-16.9,8.4
		c-10-3.4-20.9-0.1-27.5,8.3c-3.3,4.2-3.5,8.6,0.9,11.8c6.3,4.4,12.9,8.6,19.8,11.9c2.7,1.3,6.8,0.6,10-0.1c4.2-0.9,6.1-1.9,12-4
		C471.2,385.6,473.6,411.8,477.7,427.7z"/>
	<path class="st64" d="M525.2,321c0,0-0.1-0.2-0.4-0.4c-0.3-0.3-0.6-0.8-1.2-1.2c-0.6-0.4-1.3-1.1-2.2-1.5c-0.5-0.2-0.9-0.5-1.4-0.8
		c-0.5-0.2-1.1-0.5-1.7-0.7c-1.2-0.5-2.5-0.9-3.9-1.4c-1.4-0.4-2.9-0.8-4.5-1.1c-0.8-0.1-1.6-0.3-2.4-0.4s-1.6-0.2-2.5-0.3
		c-0.8-0.1-1.7-0.1-2.5-0.1s-1.7-0.1-2.5-0.1c-1.7,0.1-3.4,0.1-5.1,0.4c-0.8,0.1-1.7,0.2-2.5,0.3c-0.8,0.2-1.6,0.4-2.4,0.6
		c-1.6,0.3-3,0.9-4.4,1.4s-2.6,1.2-3.8,1.7c-1.1,0.6-2.1,1.3-2.9,1.9c-0.9,0.5-1.5,1.2-2.1,1.7c-1.1,1-1.7,1.6-1.7,1.6
		s0.8-0.4,2-1.1c0.6-0.4,1.4-0.8,2.3-1.2c0.5-0.2,0.9-0.4,1.5-0.6c0.5-0.2,1-0.5,1.6-0.7s1.2-0.4,1.8-0.6c0.6-0.2,1.2-0.5,1.9-0.6
		c1.4-0.3,2.8-0.7,4.3-0.9c0.7-0.1,1.5-0.3,2.3-0.4s1.6-0.1,2.3-0.2c1.6-0.2,3.2-0.2,4.8-0.3c0.8,0,1.6,0,2.4,0s1.6,0,2.4,0.1
		s1.6,0.1,2.4,0.1c0.8,0.1,1.5,0.2,2.3,0.2c1.5,0.1,3,0.4,4.3,0.6c0.7,0.1,1.3,0.3,2,0.4c0.6,0.1,1.3,0.2,1.9,0.4
		c0.6,0.2,1.2,0.3,1.7,0.5c0.5,0.1,1,0.3,1.5,0.5c1,0.3,1.7,0.7,2.4,1s1.1,0.6,1.5,0.8C525,320.9,525.2,321,525.2,321z"/>
	<path class="st64" d="M487.7,420.9c0.6-2.3,4.6-4,6.8-4.6c2.9-0.7,6.6-0.6,9.4-0.3c0.7,0.1,4.9-0.3,5.5-0.4
		c2.8-0.6,5.5-0.9,8.4-0.4c2.3,0.4,6.4,1.8,7.2,4c0.4,1-0.1,3.4-1.1,4c-0.7,0.4-3,0-3.9,0.1c-3,0.2-5.6,1.5-3,4.3
		c1.5,1.6,5.1,1.6,5.3,4.3c0.3,3.6-2.3,10.2-8.6,9.5c-7.5-0.8-12-0.3-14.2,0.3c-7.4,1.9-8.6-5.2-8.6-8.8c0-2.6,4.2-2.6,5.5-4.3
		c2.3-3-0.4-4-3.4-4c-1,0-3.2,0.5-3.9,0.2C488.1,424.3,487.4,421.9,487.7,420.9z"/>
	<path class="st64" d="M527.6,416.2c0,0,0,0.4,0,1c0,0.7-0.1,1.6-0.1,2.8c0,1.2,0,2.7,0.3,4.4c0.2,1.7,0.9,3.6,1.1,5.6
		c0.1,1,0.2,2.1,0,3.1c-0.1,0.5-0.2,1.1-0.4,1.5c-0.2,0.6-0.5,1-0.8,1.5c-1.2,1.9-3.4,3.2-5.8,3.8c-2.4,0.7-5.1,0.8-7.8,0.8
		s-5.5-0.2-8.4-0.2c-2.8,0.1-5.6,0.3-8.4,0.5c-2.7,0.1-5.4,0.2-8-0.1c-2.5-0.3-5-1-6.8-2.3c-1.8-1.4-3.2-3.2-3.6-5.2
		s0.2-3.8,0.8-5.4c0.6-1.6,1.2-2.9,1.7-4.1c0.5-1.1,0.7-2.1,0.9-2.7c0.1-0.6,0.2-1,0.2-1s-0.1,0.3-0.3,1c-0.2,0.6-0.6,1.5-1.1,2.6
		s-1.2,2.4-1.9,4c-0.2,0.4-0.4,0.8-0.5,1.2c-0.1,0.2-0.2,0.4-0.2,0.6c-0.1,0.2-0.1,0.5-0.2,0.7c-0.2,1-0.3,2-0.1,3.1
		c0.4,2.2,1.8,4.3,3.8,5.9s4.6,2.4,7.3,2.8c2.7,0.4,5.4,0.3,8.2,0.2c2.8-0.1,5.6-0.3,8.3-0.4c2.8,0,5.6,0.2,8.3,0.1
		c2.8,0,5.6-0.2,8.2-0.9c1.3-0.4,2.6-0.9,3.7-1.7c1.1-0.8,2-1.7,2.7-2.8c0.3-0.6,0.6-1.1,0.8-1.7s0.4-1.2,0.4-1.8
		c0.1-1.2,0-2.3-0.2-3.4c-0.4-2.1-1.1-3.9-1.4-5.6c-0.3-1.7-0.5-3.1-0.5-4.4C527.7,417.6,527.6,416.2,527.6,416.2z"/>
	<path class="st64" d="M490,441.2c-0.9,0.9-1.4,1.3-2.8,3.3s-2.9,4.5-4.5,7.5c-1.5,3-3.1,6.5-4.6,10.3c-1.5,3.9-2.9,8.1-4.3,12.6
		c-0.7,2.2-1.4,4.6-2.1,6.9c-0.2,0.6-0.4,1.2-0.5,1.8c-0.2,0.6-0.4,1.2-0.5,1.8c-0.4,1.2-0.7,2.4-1.1,3.6c-1.5,4.8-3.1,9.8-4.9,14.9
		s-3.6,10.2-5.4,15.3s-3.8,10.1-6.1,14.8c-1.2,2.3-2.4,4.6-3.8,6.7c-1.3,2.1-2.8,4.2-4.3,6c-3.1,3.7-6.8,6.6-10.8,8.3
		c-4,1.8-8.2,2.4-12.1,2.4s-7.6-0.7-10.8-1.4c-3.2-0.8-5.9-1.7-8.2-2.4c-2.2-0.8-4-1.5-5.2-2s-1.8-0.8-1.8-0.8s0.6,0.4,1.7,1
		c1.1,0.7,2.7,1.6,4.9,2.7c2.2,1.1,4.8,2.3,8,3.5c3.2,1.1,6.9,2.2,11.2,2.5c4.2,0.4,9.1,0,13.8-1.8c2.4-0.9,4.7-2.1,6.8-3.6
		c2.1-1.5,4.2-3.3,6-5.3s3.5-4.2,5-6.4c1.5-2.3,2.9-4.7,4.1-7.2c2.5-5,4.7-10.1,6.4-15.4c1.8-5.2,3.6-10.3,5.2-15.5
		s3.1-10.3,4.5-15.3c0.3-1.2,0.6-2.5,0.9-3.7c0.1-0.6,0.3-1.2,0.4-1.8c0.2-0.6,0.3-1.2,0.5-1.8c0.6-2.4,1.2-4.7,1.8-7
		c1.1-4.5,2.2-8.8,3.4-12.7c1.2-3.9,2.3-7.4,3.6-10.5c1.2-3.1,2.4-5.7,3.6-7.7C489.2,442.9,489.3,442.6,490,441.2z"/>
	<path class="st1" d="M530.9,363.5c-0.8,4.7,0,4.8,0.6,5.2c1.1,0.5,2.5-1.2,3.4-3.6s0.8-4.6-0.3-5.1
		C533.5,359.6,531.3,361,530.9,363.5z"/>
	<path class="st64" d="M531.6,364.7c-0.7,3.1-0.6,3.9,0.3,4.3c1,0.4,2.5-1.3,3.1-2.9c0.7-1.7,0.4-3.3-0.5-3.7
		C533.5,362,532,363,531.6,364.7z"/>
	<g>
		<path class="st1" d="M474,364.5c1.4,4.6,0.5,4.8-0.2,5.2c-1.2,0.6-3-1-4.3-3.3s-1.4-4.6-0.1-5.1
			C470.6,360.8,473.2,362.1,474,364.5z"/>
		<path class="st64" d="M473.3,365.8c1.2,3.1,1.1,3.9,0.1,4.3c-1.1,0.5-3-1.1-3.9-2.7s-0.8-3.3,0.3-3.7
			C470.8,363.3,472.7,364.1,473.3,365.8z"/>
	</g>
	<path class="st64" d="M432.3,352.6c0,0-0.3,0.1-0.6,0.2c-0.5,0.1-1,0.3-1.8,0.5c-0.7,0.3-1.7,0.5-2.8,0.7c-1,0.2-1.9,0.5-3.2,0.6
		c-1.3,0.1-2.7,0.2-4.2,0.2s-3,0-4.7,0c-3.2-0.1-6.7-0.4-10.1-0.9c-1.7-0.3-3.5-0.5-5.1-0.8c-1.7-0.3-3.4-0.5-5-0.8
		c-1.7-0.2-3.2-0.5-4.8-0.5c-0.8,0-1.5-0.1-2.2-0.1s-1.4,0.1-2.1,0.1c-1.3,0-2.6,0.3-3.6,0.4c-1.1,0.1-2,0.4-2.7,0.6
		c-1.5,0.4-2.3,0.6-2.3,0.6s0.9,0,2.4-0.1c0.8,0,1.7-0.1,2.7-0.1c0.5,0,1.1,0,1.7,0s1.2,0,1.9,0.1c0.6,0.1,1.3,0.1,2,0.2
		s1.4,0.2,2.1,0.3c0.7,0.1,1.5,0.2,2.2,0.4c0.8,0.1,1.5,0.3,2.3,0.5c1.6,0.3,3.2,0.7,5,1c1.7,0.4,3.4,0.6,5.2,0.9
		c1.8,0.2,3.5,0.4,5.3,0.5c1.7,0.1,3.5,0.1,5.1,0.1c1.7,0,3.3-0.1,4.8-0.3c1.5-0.2,3-0.4,4.3-0.7c1.3-0.3,2.5-0.7,3.5-1
		c1-0.4,1.9-0.8,2.6-1.2c0.7-0.4,1.2-0.7,1.5-1C432.1,352.8,432.3,352.6,432.3,352.6z"/>
	<path class="st64" d="M181.4,364.4c0,0-1,0-2.9,0c-0.9,0-2,0-3.3,0s-2.7,0-4.3-0.1c-1.6,0-3.2-0.1-5-0.1c-1.8-0.1-3.7-0.2-5.6-0.3
		c-1.9-0.1-4-0.2-6-0.4c-2-0.2-4.1-0.3-6.2-0.5c-2.1-0.2-4.1-0.5-6.2-0.7c-1-0.1-2-0.2-3-0.3c-1-0.1-2-0.3-2.9-0.4
		c-1.9-0.3-3.8-0.5-5.6-0.7c-1.8-0.3-3.4-0.6-5-0.8c-1.5-0.3-3-0.4-4.2-0.7c-1.2-0.3-2.3-0.5-3.2-0.7c-1.8-0.4-2.8-0.6-2.8-0.6
		s1,0.3,2.7,0.8c0.9,0.3,1.9,0.6,3.2,0.9c1.2,0.4,2.6,0.7,4.2,1c1.5,0.3,3.2,0.7,4.9,1.1c1.8,0.3,3.6,0.6,5.6,0.9
		c1,0.2,1.9,0.3,2.9,0.5c1,0.1,2,0.2,3,0.4c2,0.2,4.1,0.5,6.2,0.7c2.1,0.2,4.2,0.3,6.2,0.5s4.1,0.2,6,0.3c2,0.1,3.8,0.1,5.6,0.1
		s3.5-0.1,5.1-0.1s3,0,4.3-0.2c1.3-0.1,2.4-0.2,3.3-0.2C180.3,364.5,181.4,364.4,181.4,364.4z"/>
	<path class="st64" d="M416.2,510.3c0,0-0.2,0.1-0.4,0.3c-0.3,0.2-0.6,0.6-1,1c-0.8,1-1.9,2.5-3.1,4.5c-1.3,2-2.7,4.5-4.3,7.4
		c-1.6,2.9-3.3,6.2-5.1,9.8c-1.8,3.7-3.8,7.5-5.6,11.9c-0.1,0.3-0.2,0.6-0.3,0.9l-0.3,0.8c-0.2,0.6-0.3,1.1-0.5,1.7
		c-0.3,1.2-0.7,2.3-1,3.5c-0.6,2.4-1.2,4.8-1.6,7.4c-0.2,1.3-0.4,2.6-0.5,3.9c-0.1,1.3-0.3,2.6-0.4,3.9c-0.3,2.6-0.4,5.3-0.5,7.9
		c-0.2,5.3-0.4,10.7-0.6,16.1c0,0.6,0,1.4-0.1,2c-0.1,0.7-0.1,1.4-0.2,2c-0.1,1.2-0.4,2.5-0.6,3.8c-0.5,2.5-1.3,5.1-2,7.6
		c-0.7,2.6-1.4,5.1-2,7.7c-0.3,1.3-0.5,2.6-0.7,4l-0.1,1v0.2v0.3v0.5c0,0.6-0.1,1.3-0.1,1.9c-0.3,5.2-0.1,10.2,0.5,14.9
		s1.4,9,2.5,13s2.5,7.5,3.9,10.5s2.9,5.5,4.1,7.5s2.2,3.6,2.9,4.6c0.7,1.1,1.1,1.6,1.1,1.6s-1.2-2.4-3.2-6.7c-1-2.1-2.2-4.7-3.3-7.8
		c-1.1-3.1-2.3-6.5-3-10.4s-1.4-8.2-1.7-12.8c-0.3-4.6-0.5-9.4,0-14.2c0.1-0.6,0.1-1.3,0.2-1.9l0.1-0.5v-0.2v-0.2l0.1-0.9
		c0.2-1.2,0.4-2.4,0.7-3.7c0.6-2.5,1.3-5,2-7.5c0.7-2.6,1.5-5.2,2-7.9c0.3-1.4,0.5-2.7,0.7-4.2c0.1-0.7,0.1-1.4,0.2-2.1
		c0.1-0.8,0.1-1.4,0.1-2.1c0.2-5.4,0.2-10.8,0.3-16.1c0-2.6,0.1-5.3,0.2-7.8c0-1.3,0.1-2.6,0.2-3.9c0.1-1.3,0.2-2.5,0.3-3.7
		c0.3-2.5,0.7-4.9,1.1-7.2c0.2-1.2,0.5-2.4,0.7-3.5c0.1-0.6,0.3-1.2,0.4-1.7l0.2-0.9c0.1-0.2,0.1-0.5,0.2-0.8c1.5-4.3,3.4-8.3,5-12
		c3.3-7.4,6.3-13.4,8.5-17.6c1.1-2.1,2.1-3.7,2.8-4.7c0.4-0.5,0.7-0.9,0.9-1.1C416.1,510.3,416.2,510.3,416.2,510.3z"/>
	<path class="st64" d="M410.8,557.6c0,0,0,0.5-0.1,1.3c0,0.8-0.1,2.1-0.3,3.6c-0.2,1.6-0.5,3.4-1,5.6c-0.5,2.1-1.2,4.5-2.1,7
		c-1.7,5.1-4.1,10.9-6.6,17.2c-1.2,3.2-2.5,6.5-3.5,9.9c-1,3.5-1.8,7.1-2.2,10.7c-0.4,3.6-0.7,7.2-1,10.7c-0.3,3.6-0.4,7.1-0.4,10.5
		s0.1,6.7,0.5,9.8c0.3,3.1,0.8,6.1,1.5,8.7c0.7,2.7,1.5,5,2.4,7.1c0.9,2,1.8,3.7,2.7,5.1c0.9,1.3,1.7,2.2,2.2,2.9s0.8,1,0.8,1
		s-0.2-0.4-0.6-1.1c-0.4-0.7-1.1-1.8-1.9-3.1s-1.5-3.1-2.2-5.1c-0.7-2.1-1.3-4.4-1.8-7s-0.8-5.5-1-8.5s-0.2-6.3-0.1-9.6
		s0.3-6.8,0.6-10.3c0.3-3.5,0.7-7.1,1-10.7c0.3-3.5,1.1-7,2-10.3c0.9-3.4,2-6.6,3.2-9.8c1.1-3.2,2.3-6.2,3.3-9.2
		c1-2.9,1.9-5.8,2.6-8.4c1.4-5.2,2.1-9.8,2.2-12.9c0-1.6,0-2.8-0.1-3.7C410.9,558,410.8,557.6,410.8,557.6z"/>
	<path class="st64" d="M191.6,531.5c0,0,0.3-0.1,0.8-0.3s1.3-0.4,2.3-0.4c2-0.2,5,0.3,8.7,1.5c1.8,0.6,3.8,1.3,6,1.9
		c1.1,0.3,2.3,0.6,3.5,0.9c1.2,0.3,2.5,0.6,3.7,1c5.1,1.4,10.8,3.3,17,5.4c6.2,2,13,4.3,20.5,5.7c7.4,1.5,15.5,2.2,23.8,2.1
		c8.3-0.1,16.9-0.7,25.5-2.7c4.3-1,8.5-2.3,12.7-3.8c2.1-0.8,4.2-1.7,6.1-2.5c2-0.8,4-1.5,6-2.1c4-1.2,8.2-1.8,12.2-1.4
		c4,0.4,7.8,1.8,11,4.2c1.5,1.1,2.7,2.6,3.6,4.2c0.9,1.6,1.5,3.5,1.8,5.4c0.7,3.9,0.7,8.1,1,12.2c0.2,2.1,0.4,4.2,0.9,6.3
		c0.5,2,1,3.9,1.4,5.8c0.9,3.8,1.9,7.6,2.9,11.2c1.9,7.3,3.9,14.1,5.8,20.4c0.5,1.6,1,3.1,1.3,4.6c0.4,1.5,0.7,2.9,0.9,4.4
		c0.5,2.9,0.6,5.7,0.6,8.3c0,5.3-0.5,9.9-0.7,13.7c-0.3,3.8-0.4,6.8-0.5,8.9c0,2.1,0,3.1,0,3.1s0-1.1,0.2-3.1c0.1-2,0.5-5,1-8.8
		s1.2-8.4,1.5-13.8c0.1-2.7,0.1-5.6-0.2-8.6c-0.2-1.5-0.4-3.1-0.8-4.6c-0.4-1.6-0.8-3.1-1.2-4.7c-0.8-3.2-1.7-6.5-2.5-9.9
		s-1.8-7-2.6-10.6c-0.9-3.6-1.8-7.4-2.6-11.2c-0.4-1.9-0.9-3.9-1.3-5.8c-0.4-1.9-0.6-3.8-0.7-5.8c-0.3-4-0.1-8.2-0.9-12.6
		c-0.4-2.2-1-4.5-2.1-6.6s-2.7-4-4.6-5.5c-3.7-2.9-8.3-4.6-12.9-5c-4.7-0.4-9.3,0.3-13.7,1.5c-2.2,0.6-4.3,1.4-6.4,2.3
		c-2.1,0.9-4,1.7-6,2.5c-4,1.5-8,2.8-12.1,3.7c-8.2,1.9-16.5,2.8-24.6,3s-15.9-0.1-23.2-1.4c-7.3-1.2-14.1-3.1-20.4-4.8
		c-6.3-1.7-12.2-3.3-17.4-4.4c-2.6-0.6-5.1-1-7.3-1.5c-2.2-0.6-4.2-1.2-6.1-1.8c-3.7-1.1-6.7-1.5-8.8-1.2c-1,0.1-1.8,0.3-2.3,0.5
		C191.8,531.4,191.6,531.5,191.6,531.5z"/>
	<path class="st64" d="M199.6,529.4c0,0-0.2-0.1-0.6-0.3c-0.4-0.2-1-0.5-1.8-0.9c-1.5-0.9-3.7-2.4-5.7-5c-2.1-2.5-3.9-6.1-5.9-10.2
		c-1-2.1-2.2-4.3-3.7-6.4s-3.6-4.2-6.1-5.6c-1.3-0.8-2.7-1.3-4.1-1.8c-1.5-0.4-3-0.7-4.5-0.9c-1.6-0.2-3.1-0.2-4.8-0.2
		s-3.3,0.2-4.9,0.5c-3.3,0.6-6.6,1.6-9.8,3.3c-0.8,0.4-1.6,1-2.3,1.6l-0.5,0.5c-0.2,0.2-0.3,0.3-0.5,0.5l-0.9,0.9
		c-0.6,0.6-1.2,1.2-1.8,1.9c-0.6,0.7-1.2,1.4-1.8,2.1c-4.7,5.5-8.5,12-11.7,18.8s-6.3,13.5-9.5,20.4c-3.1,6.9-6.2,13.8-8.9,20.8
		c-2.7,7-5.1,14-6.9,20.9c-0.5,1.7-0.8,3.5-1.3,5.2c-0.4,1.8-0.7,3.4-1,5.1c-0.2,1.7-0.6,3.4-0.7,5.1c-0.1,1.7-0.4,3.3-0.4,5
		c-0.4,6.6-0.2,12.8,0.5,18.5c0.2,1.4,0.4,2.8,0.6,4.2c0.3,1.3,0.5,2.6,0.8,3.9c0.3,1.3,0.6,2.5,0.9,3.7s0.6,2.3,0.9,3.5
		c0.3,1.1,0.6,2.2,0.9,3.2s0.6,2,0.9,3c0.7,1.9,1.5,3.6,2.2,5.1c1.4,3,2.5,5.3,3,7c0.3,0.8,0.5,1.5,0.6,1.9s0.2,0.7,0.2,0.7
		s0-0.2-0.1-0.7s-0.2-1.1-0.4-2c-0.4-1.7-1.3-4.2-2.4-7.3c-0.6-1.5-1.2-3.3-1.8-5.1c-0.3-0.9-0.5-1.9-0.7-3c-0.2-1-0.5-2.1-0.7-3.2
		c-0.2-1.1-0.5-2.3-0.7-3.5s-0.4-2.4-0.7-3.7c-0.2-1.3-0.4-2.6-0.6-3.9c-0.1-1.3-0.3-2.7-0.4-4.1c-0.4-5.6-0.4-11.6,0.2-18
		c0.3-3.2,0.8-6.4,1.4-9.7c0.3-1.6,0.7-3.4,1.1-5c0.4-1.7,0.8-3.3,1.3-5c1.9-6.7,4.2-13.6,7-20.4c2.7-6.8,5.7-13.7,8.8-20.6
		c1.5-3.4,3.1-6.9,4.6-10.3c1.5-3.4,3-6.8,4.5-10.2c0.7-1.7,1.6-3.3,2.3-4.9c0.9-1.6,1.6-3.2,2.6-4.7c1.7-3.1,3.7-6,5.8-8.8
		c0.5-0.7,1.1-1.3,1.6-2s1.2-1.3,1.7-2l0.9-1c0.1-0.1,0.3-0.4,0.4-0.4l0.4-0.4c0.6-0.5,1.2-1,1.9-1.4c2.7-1.6,5.9-2.7,8.9-3.4
		c1.5-0.3,3.1-0.6,4.6-0.7s3.1,0,4.5,0.1c1.5,0.1,2.9,0.4,4.3,0.7c1.4,0.4,2.7,0.8,3.9,1.5c2.4,1.2,4.3,3.1,5.9,5.1
		c1.5,2,2.8,4.1,3.8,6.1c2.2,4,4.1,7.6,6.3,10.1c2.2,2.6,4.4,4,6,4.8c0.8,0.4,1.4,0.7,1.8,0.9C199.4,529.3,199.6,529.4,199.6,529.4z
		"/>
	<path class="st64" d="M84.2,429.6c-0.2,4.5,0.1,9.2,0.6,13.7s1.3,9,1.8,13.5c0.6,4.5,0.9,8.9,0.8,13.4c-0.1,4.6,0,9.2,0.1,13.7
		s0.2,9.1,0,13.5c-0.2,4.5-0.5,8.9-1.3,13.2c-0.4,2.1-1,4.4-1.5,6.6l-1.6,6.6c-1.1,4.4-2.3,8.7-3.6,13c-0.7,2.1-1.4,4.3-2.1,6.4
		c-0.7,2.2-1.5,3.9-2.6,6c-1,2-2.1,4.2-2.9,6.7c-0.2,0.6-0.3,1.3-0.5,1.9l-0.1,0.5l-0.1,0.5c0,0.3-0.1,0.5-0.1,0.9
		c-0.1,1.4-0.1,2.6,0,3.9c0.4,5,2,9.4,2.9,13.7c0.6,2.2,0.9,4.4,1.4,6.5c0.4,2.2,0.8,4.4,1.1,6.7c0.7,4.5,1.2,9,1.9,13.5l1,6.8
		l1.1,6.7c0.6,4.4,1.2,8.9,1.1,13.3c0,2.2-0.1,4.5-0.1,6.9c0,1.2,0,2.3,0.2,3.5c0.1,1.2,0.3,2.4,0.9,3.7l-0.1-0.6
		c0,0.5-0.1,0.9-0.1,1.3v1.2v2.4c0,1.6,0.1,3.2,0.2,4.8s0.3,3.2,0.5,4.8c0.1,0.8,0.2,1.6,0.4,2.4c0.2,0.8,0.4,1.6,0.8,2.5l0.4,0.8
		l0.8-0.4l2.2-1.1c0.2-0.1,0.4-0.2,0.5-0.2c0.2-0.1,0.3-0.1,0.4-0.1l-0.1-0.1l0,0c0,0.1,0.1,0.3,0.1,0.5c0,0.8,0.1,1.7,0.2,2.6
		c0.1,0.9,0.3,1.7,0.6,2.5c-0.1-0.8-0.1-1.7-0.1-2.5s0.1-1.7,0.2-2.5c0-0.2,0-0.4,0-0.7c0-0.1,0-0.3-0.2-0.5
		c-0.1-0.2-0.4-0.4-0.7-0.4c-0.4-0.1-0.6,0-0.9,0.1c-0.2,0-0.5,0.1-0.7,0.2c-0.9,0.2-1.7,0.5-2.5,0.8l1.2,0.4
		c-0.3-0.5-0.4-1.3-0.6-2c-0.1-0.7-0.2-1.5-0.3-2.3c-0.2-1.5-0.3-3.1-0.3-4.7c-0.1-1.6-0.1-3.1-0.1-4.7V647v-1.2
		c0-0.4,0-0.8,0.1-1.1v-0.3l-0.1-0.3c-0.3-0.9-0.4-1.9-0.4-3s0-2.2,0-3.3c0.1-2.2,0.3-4.5,0.5-6.8c0.3-4.7,0-9.3-0.5-13.9l-0.8-6.8
		l-0.7-6.8c-0.5-4.5-0.9-9.1-1.5-13.6c-0.3-2.3-0.6-4.6-1-6.8c-0.4-2.3-0.8-4.7-1.3-6.8c-1-4.6-2.4-8.9-2.7-13c-0.1-1-0.1-2.1,0-3
		c0-0.2,0-0.5,0.1-0.8v-0.3l0.1-0.3c0.1-0.5,0.2-0.9,0.3-1.4c0.6-1.8,1.5-3.7,2.6-5.8c0.5-1,1-2.1,1.5-3.2c0.5-1.2,0.9-2.3,1.2-3.4
		c0.8-2.2,1.5-4.4,2.2-6.6c1.3-4.4,2.5-8.9,3.6-13.3c0.5-2.2,1-4.5,1.5-6.7s1-4.4,1.4-6.8c0.8-4.7,1.1-9.4,1.1-14s-0.3-9.2-0.6-13.8
		c-0.3-4.6-0.6-9-0.7-13.6c-0.2-4.6-0.8-9.3-1.7-13.8c-0.9-4.5-1.9-8.9-2.9-13.4C85.2,438.6,84.5,434.2,84.2,429.6z"/>
	<path class="st64" d="M189.3,532.4c0,0-0.2,0-0.5,0.1s-0.8,0.1-1.3,0.3c-1.2,0.4-2.8,1.1-4.7,2.2c-1,0.6-2,1.2-3.2,1.9
		s-2.4,1.5-3.8,2.1c-1.4,0.6-2.9,1.3-4.5,2s-3.3,1.3-5.1,2s-3.6,1.3-5.6,1.6s-4.1,0.5-6.4,1c-0.6,0.1-1.1,0.3-1.7,0.4l-0.2,0.1h-0.1
		l-0.2,0.1l-0.4,0.2l-0.8,0.3c-0.5,0.3-1.2,0.6-1.7,1s-1,0.8-1.4,1.3c-0.9,1-1.5,2.1-2,3.1c-0.5,1.1-1,2.1-1.5,3.3
		c-1,2.1-1.9,4.5-2.6,6.9c-0.8,2.4-1.4,4.8-2.1,7.2c-0.7,2.4-1.3,4.8-2,7.3c-0.4,1.2-0.7,2.4-1.1,3.7c-0.3,1.2-0.7,2.4-1,3.7
		c-1.2,5.1-1.7,10.3-1.8,15.3c-0.1,2.5-0.1,5,0,7.5c0,2.4,0.2,4.9,0.3,7.3c0.3,4.8,0.9,9.4,1.8,13.8c0.9,4.3,2.1,8.4,3.4,12
		c1.3,3.6,2.9,6.8,4.4,9.6c1.5,2.7,3,5,4.3,6.8c0.7,0.9,1.3,1.7,1.8,2.4c0.6,0.7,1,1.2,1.4,1.7c0.8,0.9,1.2,1.4,1.2,1.4
		s-0.4-0.5-1.1-1.5c-0.3-0.5-0.8-1.1-1.3-1.8s-1-1.6-1.6-2.5c-1.2-1.9-2.5-4.2-3.9-7c-1.3-2.8-2.7-6-3.8-9.6s-2.1-7.6-2.9-11.9
		c-0.8-4.3-1.2-8.8-1.4-13.6c-0.2-4.7-0.2-9.7-0.1-14.6c0.2-5,0.7-10,1.8-14.8c0.2-1.2,0.6-2.4,1-3.7c0.4-1.2,0.7-2.4,1.1-3.7
		c0.6-2.5,1.3-4.9,1.9-7.3c0.3-1.2,0.6-2.4,1-3.6c0.3-1.2,0.6-2.4,1-3.5c0.7-2.3,1.5-4.5,2.4-6.7c0.9-2.1,1.8-4.4,3.1-5.9
		c0.3-0.4,0.7-0.7,1-1.1c0.4-0.3,0.7-0.5,1.2-0.8l0.8-0.3l0.4-0.2l0,0c0.1,0-0.1,0,0,0h0.1l0.2-0.1c0.5-0.1,1-0.3,1.5-0.4
		c2-0.5,4.1-0.8,6.2-1.2c1-0.2,2.1-0.5,3.1-0.8l0.7-0.2l0.4-0.1l0.3-0.1c0.5-0.2,0.9-0.4,1.3-0.6c1.8-0.8,3.5-1.4,5.1-2.2
		s3-1.5,4.4-2.3c1.4-0.7,2.6-1.6,3.7-2.3c1.1-0.8,2.1-1.4,3-2.1c1.9-1.2,3.4-2.1,4.5-2.5c0.5-0.3,1-0.3,1.3-0.4
		C189.2,532.5,189.3,532.4,189.3,532.4z"/>
	<path class="st64" d="M109.6,581c-0.1,1.7,0.2,3.4,0.6,5s0.9,3.2,1.3,4.9c0.1,0.5,0.2,1,0.3,1.4c0.2,1.1,0.3,2.3,0.4,3.5
		c0.2,1.7,0.3,3.3,0.6,5l0.8,5c0.3,1.6,0.5,3.3,0.7,4.9c0.4,3.3,0.9,6.7,1.6,10c0.4,1.6,0.7,3.3,1.1,4.9l1.2,4.9
		c0.4,1.6,0.8,3.3,1.1,4.9c0.4,1.6,0.7,3.3,1.1,4.9c0.8,3.3,1.6,6.5,2.4,9.7c0.4,1.6,0.7,3.3,0.9,4.9c0.2,1.6,0.3,3.3,0,4.9
		l-0.3,1.9l1.1-1.6c0.6-0.8,1.2-1.6,1.9-2.3c0.4-0.3,0.8-0.6,1.2-0.8c0.4-0.2,0.7,0,1,0.4c0.2,0.4,0.3,0.9,0.4,1.4
		c0.1,0.5,0.1,1,0.1,1.5c0,1-0.1,2.1-0.2,3.1c0.2-1,0.4-2,0.5-3.1c0-0.5,0-1,0-1.6c0-0.5-0.1-1.1-0.4-1.6c-0.1-0.3-0.3-0.5-0.6-0.7
		s-0.7-0.1-1-0.1c-0.6,0.2-1,0.5-1.5,0.9c-0.8,0.7-1.5,1.5-2.2,2.3l0.8,0.3c0.3-1.7,0.2-3.5,0.1-5.1c-0.2-1.7-0.5-3.4-0.8-5
		c-0.6-3.3-1.5-6.6-2.3-9.8c-0.4-1.6-0.7-3.2-1.1-4.9c-0.3-1.6-0.7-3.3-1.1-4.9l-2.2-9.8c-0.8-3.2-1.2-6.5-1.7-9.8
		c-0.2-1.7-0.5-3.3-0.8-5l-1-4.9c-0.3-1.6-0.5-3.3-0.7-5c-0.2-1.6-0.4-3.4-0.9-5s-1-3.2-1.5-4.8C110,584.3,109.6,582.7,109.6,581z"
		/>
	<path class="st64" d="M124.8,541.1c0,0,0.2,0.1,0.5,0.1c0.4,0.1,0.8,0.3,1.4,0.5s1.3,0.5,2.1,0.9s1.7,0.9,2.6,1.4
		c1.9,1.1,4.2,2.4,7,3.5c1.4,0.6,3.1,0.9,4.4,1.1c1.6,0.2,3.2,0.3,4.8,0.3s3.2-0.2,4.7-0.5s3-0.6,4.3-1c2.7-0.8,5.2-1.7,7.3-2.6
		c2.1-0.8,3.8-1.6,5-2.1s1.9-0.8,1.9-0.8s-0.8,0-2.1,0.1s-3.2,0.3-5.4,0.7c-2.2,0.3-4.8,0.9-7.5,1.3c-0.7,0.1-1.3,0.2-2,0.3
		s-1.4,0.2-2.1,0.3c-1.4,0.1-2.8,0.3-4.2,0.3c-1.4,0.1-2.8,0-4.1-0.1c-0.7-0.1-1.4-0.2-2.1-0.3c-0.6-0.1-1.2-0.3-1.9-0.4
		c-1.3-0.3-2.5-0.7-3.7-1.2c-1.2-0.4-2.4-0.8-3.5-1.1s-2.1-0.6-3.1-0.7c-0.9-0.2-1.8-0.2-2.4-0.3c-0.7,0-1.2,0-1.6,0.1
		C125,541,124.8,541.1,124.8,541.1z"/>
	<path class="st64" d="M168.6,542.7c0,2.1,5.4,13.9,3,15.7c-3.2,2.4-8.6-10.9-8.2-13.3c1.7,0.1,3-1.4,4.6-1.9L168.6,542.7z"/>
	<path class="st64" d="M178.2,538c0,1.8,4.4,11.2,2.4,12.8c-2.6,2-7.1-8.7-6.8-10.7c1.5-0.3,2.2-1,3.5-1.4L178.2,538z"/>
	<path class="st64" d="M153.1,544.9c-1.6,0.1-2.2,0.5-4,0.7c-0.9,2.3,1.8,16.5,5.3,14.8c2.7-1.3-0.1-13.9,0.3-16L153.1,544.9z"/>
	<path class="st64" d="M111,666c0,0,11.8,7.5,11.9,11.5v3.2H92.7c0,0-4-4-2.5-10.4C90.2,670.4,100.6,671.5,111,666z"/>
	<path class="st64" d="M395.5,667.1c0,0,7.8,8.4,10.8,11.5v3.2h-30.2c0,0-4-4-2.5-10.4C373.6,671.5,385.1,672.6,395.5,667.1z"/>
	<path class="st64" d="M402.9,667.1c0,0,11.2,7.5,11.4,11.5v3.2H384c0,0-4-4-2.5-10.4C381.5,671.5,392.6,672.6,402.9,667.1z"/>
	<path class="st64" d="M151.2,660.6c0,0,10.8,7.8,11,11.8v3.2H132c0,0-4.3-3.9-2.8-10.3C129.1,665.3,140.8,666.1,151.2,660.6z"/>
	<path class="st1" d="M397,668.3c0,0,0.1,0.3,0.3,0.7c0.2,0.5,0.5,1.1,1,1.8s1.2,1.5,2.1,2.2c0.5,0.3,0.9,0.6,1.4,0.9
		c0.5,0.3,1,0.6,1.5,0.8c0.5,0.3,0.9,0.6,1.3,0.9c0.4,0.3,0.8,0.7,1.1,1.1c0.6,0.8,1.1,1.6,1.5,2.4c0.3,0.7,0.5,1.4,0.7,1.9
		c0.1,0.5,0.2,0.8,0.2,0.8s0.1-0.3,0.1-0.8s0-1.3-0.2-2.1c-0.1-0.4-0.2-0.9-0.5-1.4c-0.2-0.5-0.5-1-0.8-1.4
		c-0.3-0.5-0.7-0.9-1.1-1.4c-0.5-0.4-1-0.8-1.5-1.1s-1-0.6-1.5-0.8c-0.5-0.3-1-0.5-1.4-0.8c-0.9-0.5-1.6-1.1-2.2-1.7
		c-0.6-0.6-1.1-1.1-1.4-1.5C397.3,668.5,397,668.3,397,668.3z"/>
	<path class="st1" d="M466.4,364.6c0,0,0-0.4,0.1-1c0-0.7,0-1.6,0.1-2.7c0-0.6,0.2-1.1,0.3-1.7V359c0,0,0.1-0.1,0.1-0.2l0.2-0.5
		c0.1-0.3,0.3-0.6,0.5-0.9c0.3-0.6,0.7-1.2,1-2c0.1-0.4,0.3-0.7,0.4-1.2l0.2-1.1c0.1-0.7,0.1-1.6,0.1-2.4c0-0.7,0-1.5,0-2.2
		s0-1.4,0-2.1s-0.1-1.3-0.1-1.8c0-0.6-0.1-1.1-0.1-1.5c0-0.5,0-0.9,0.1-1.2c0-0.3,0.1-0.6,0.1-0.8c0-0.2,0-0.3,0-0.3s0,0.1-0.1,0.3
		c-0.1,0.2-0.2,0.4-0.3,0.7c-0.2,0.6-0.4,1.6-0.4,2.8c0,0.6-0.1,1.2-0.1,1.8c0,0.6-0.1,1.3-0.1,2s-0.1,1.5-0.1,2.2s0,1.4-0.2,2.2
		L468,354c-0.1,0.3-0.2,0.6-0.3,0.9c-0.3,0.7-0.6,1.3-0.9,2c-0.2,0.3-0.3,0.7-0.4,1l-0.2,0.5c0,0.1,0,0.1-0.1,0.3v0.3
		c-0.1,0.7-0.2,1.3-0.1,1.9c0,1.2,0.3,2.1,0.3,2.8C466.3,364.3,466.4,364.6,466.4,364.6z"/>
	<path class="st64" d="M361.9,571.7c4.8,0,13.6-2.1,16.1,2.7c3.3,6.2-3.3,8-5.4,10.7c-4,5.1,3,3.5,5.4,10.7c1.6,4.7-4,8.6-8.6,8.8
		c-3.8-11.4-3.4-19.9-7.5-30.2"/>
	<path class="st64" d="M370.4,649.2c-0.1,0.8-0.1,1.7-0.2,2.5s-0.1,1.7-0.2,2.5c0,0.8-0.1,1.7-0.2,2.5s-0.1,1.7-0.2,2.5
		c0,0.4,0,0.9-0.1,1.2l-0.2,1.3c-0.1,0.8-0.3,1.6-0.5,2.5c-0.2,0.8-0.3,1.7-0.4,2.5c-0.1,0.4-0.1,0.9-0.1,1.3l-0.1,1.3v0.5l0.5,0.1
		c0.3,0,0.5,0.1,0.8,0.1s0.6-0.1,0.8-0.3c0.5-0.3,0.8-0.7,1-1.1c0.2-0.4,0.4-0.8,0.6-1.1s0.4-0.5,0.6-0.5c0.1,0,0.1,0,0.2,0h0.1
		c0,0,0.1,0,0,0l0,0l0.1,0.1c0.1,0,0.1,0.1,0.2,0.1c0,0.1,0.1,0.1,0.1,0.2c0.2,0.3,0.3,0.7,0.3,1.1c0.1,0.8,0,1.6-0.1,2.4
		c0.3-0.8,0.5-1.6,0.5-2.5c0-0.4,0-0.9-0.2-1.3c0-0.1-0.1-0.2-0.2-0.3s-0.2-0.2-0.3-0.3l-0.1-0.1l0,0c-0.1,0-0.1,0-0.1,0h-0.1
		c-0.1,0-0.2-0.1-0.4-0.1c-0.3,0-0.6,0-0.8,0.2c-0.2,0.1-0.4,0.3-0.6,0.5c-0.3,0.4-0.5,0.7-0.7,1.1c-0.2,0.3-0.4,0.6-0.7,0.7
		c-0.1,0.1-0.2,0.1-0.3,0.1c-0.1,0-0.3,0-0.4-0.1l0.4,0.6l0.1-1.2c0.1-0.4,0.1-0.8,0.1-1.2c0.2-0.8,0.3-1.6,0.5-2.5
		c0.2-0.8,0.4-1.7,0.4-2.5l0.2-1.3c0.1-0.5,0-0.9,0-1.3c0-0.9,0-1.7,0-2.6c0-0.9,0-1.7,0-2.6c0-0.8-0.1-1.7-0.2-2.5
		C370.5,650.8,370.5,650,370.4,649.2z"/>
	<path class="st64" d="M87.8,364.8c0,0-0.2,0.1-0.5,0.2s-0.8,0.2-1.5,0.5c-1.3,0.5-3.2,1.3-5.4,2.7c-2.2,1.4-4.7,3.4-7,6.2
		c-2.4,2.8-4.7,6.2-6.7,10.2s-3.7,8.6-4.9,13.6c-0.6,2.5-1.1,5.2-1.3,7.8c-0.1,1.3-0.2,2.7-0.3,4c-0.1,1.4-0.1,2.7-0.1,4.1
		c0,2.8,0,5.6,0,8.4c0.1,2.8,0.3,5.7,0.4,8.6c0.3,5.7,0.6,11.6,0.5,17.3c0,2.9-0.2,5.8-0.5,8.7c-0.3,2.8-0.8,5.7-1.3,8.5
		c-1.1,5.6-2.7,11-4.6,16.1c-1.8,5.1-4,9.9-6.2,14.4s-4.5,8.6-6.8,12.4c-4.5,7.5-8.9,13.4-12,17.4c-1.6,2-2.9,3.6-3.7,4.6
		c-0.9,1-1.4,1.6-1.4,1.6l0.2,0.2c0,0,0.5-0.5,1.4-1.6c0.9-1,2.2-2.5,3.9-4.5c3.3-3.9,7.8-9.7,12.6-17.1s9.8-16.4,13.8-26.7
		c2-5.2,3.8-10.6,5-16.3c0.6-2.9,1.2-5.7,1.6-8.7c0.4-2.9,0.6-5.9,0.8-8.8c0.3-5.9,0.2-11.8,0-17.6c-0.1-2.9-0.2-5.7-0.2-8.5
		c-0.1-2.8-0.2-5.6-0.1-8.3c0-2.7,0.1-5.3,0.2-8c0.1-2.6,0.5-5,1-7.5c1-4.8,2.5-9.3,4.2-13.2c1.7-4,3.7-7.4,5.9-10.1
		c2.1-2.8,4.3-4.9,6.3-6.4s3.8-2.5,5-3c0.6-0.3,1.1-0.5,1.4-0.6s0.5-0.2,0.5-0.2L87.8,364.8z"/>
	<path class="st64" d="M38,514.2c0,0,4.1,19.5-21.6,33.3C16.4,547.5,16.7,526.1,38,514.2z"/>
	<path class="st64" d="M164,373.3c4.2-3.3,8-8.9,13.2-8.9c3,0,7.2-0.2,10.9,0.1c0.1,0,0.2,0,0.2,0c60.7-1.4,138.6-6.9,168.3-9.2
		c5.1-0.5,10.2-1,15.3-1.5c4.6-0.5,1.5,2.5-2.5,3.8c-13.7,4.5-13.2,8.6-15.6,16.8c-0.5,1.7-0.5,3.7-1.4,5.1
		c-5.7,4.6-12.9,23.4-10,29.2c2.5,1.9,5.6-0.2,5.6,2.6c0,3.1-0.7,5.7-2.2,8.4c-2.6,4.8-6.6,10.1-2.1,14.3c4.2,3.3,10.1-4.9,13.6-8.7
		c5.3-5.7,9.7-2.6,14.3-0.1c5.2,2.8,6.3,7.7,5.4,13.2c-0.6,3.7-6.1,9.4-2,11.1c13.8,1.8,20.7-25.4,24.5-45
		c2.3-11.7-4.2-10.9-1.3-23.6c5.6-29.7,11.8-23.8,17.5-24c-0.6,3.2,5.3,17.9,33.7,23.3c6.7,1.3-1.6,30.9,0.5,42.5
		c1.6,9.1,3.8,13.6,15.8,13.3c6.6,0.6,10.7,16.9-2.7,34.3c-8.6,11.2-15.9,14.7-22,25.3c-1.9,3.3-5.4,6-8.7,8
		c-7.3,4.5-17.1,0.3-19.6-8.1c-1-3.1,2.1-10.1-2.6-10.3c-7.3-0.5,0.1,18-10.6,21.4c-5.7-0.2-3.2-5.5-5-8c-1.7-2.2-3.9-4.1-5.7-6.3
		c-1.5-1.9,0.2-10.3-4.2-10.1c-10.9,1.5-7.5,9.5-6.9,11.8c1.1,3.3,2.7-1.7,4.5-1.2c6.5,0.5,7.4,24-1,27.5c-7.6,3.1-8.7,8.6-11,14.5
		c-0.7,1.8-1.4,4.7-3.5,4.7c-3,0-7.1-1.2-8.4-3.2c-2.5-4.2-10.7-24.9-7.9-35.9c0.8-3,1.6-7.2,3.9-9.9c12.1-14.1-17.7-19.6-17.9-15.5
		c-0.1,3.7-1.5,8.5-4.8,10.2c-3.1,1.5-8.2-4.8-13.5,12c-1.7,3.1-1.9,8-8.1,6.5c-6.4-1.6-6.1-5.7-5.9-10.7c0.1-3.2,1.9-8-1.1-9.7
		c-5.6-1-7.1,2.7-7.4,10.9c-1.1,31.4-29.5,24.1-37,23.1c-1.6-0.2-3.4-0.1-5,0c-5,0.4-10.2,4.4-14.9,1.2c-1-0.7-2.1-4-4.3-3.9
		c-2.1,0.4-2.1,1.8-3.8,2.8c-4.8,2.7-9.1,1.5-10.5-3.6c-1.6-5.5,2.5-13.7-3.2-17.6c-2.9-2-5,7.5-9.9,4.8c-5.8-4.8-5.2-19.3,2.4-28.5
		c1.8-3-0.6-19.6-14.5-14.3c-5.4,6.4-16.9,5.5-15.2-4.1c-6.2-2.7-8-8.2-4.2-15.3c15.5-29.1,13.3-45.1,1-44.3
		c-3.3,0.7-10.5,5.1-15.9-1.6C157.5,388.7,159.8,376.6,164,373.3z"/>
	<path class="st64" d="M144.9,503c-2.2-4.7-9.4-1.6-11.9,2.5c-1.7,2.7-0.8,6.1-3,8.6c-2.1,2.4-5.8,2.8-8.7,3.8
		c-5,1.7-10.6,4-10.6,10.3c0,3.5,2.4,4.4,2.7,7.2c0.3,3.1-2.2,6.1-1.2,8.8c4.7,13.6,13.4-9,15.8-12.9c3.5-5.8,13.4-22.1,17.5-28
		L144.9,503z"/>
</g>
</svg>
