<?xml version="1.0" encoding="utf-8"?>
<!-- Generator: Adobe Illustrator 21.1.0, SVG Export Plug-In . SVG Version: 6.00 Build 0)  -->
<svg version="1.1" id="Layer_3" xmlns="http://www.w3.org/2000/svg" xmlns:xlink="http://www.w3.org/1999/xlink" x="0px" y="0px"
	 viewBox="0 0 155.2 41.6" style="enable-background:new 0 0 155.2 41.6;" xml:space="preserve">
<style type="text/css">
	.st0{fill:#FFFFFF;}
	.st1{fill:#52382E;}
	.st2{fill:none;}
	.st3{fill:#7676CE;}
	.st4{font-family:'MyriadPro-Regular';}
	.st5{font-size:14.9524px;}
	.st6{fill:#333333;}
	.st7{font-size:8.6996px;}
</style>
<title>logo</title>
<g>
	<g>
		<path class="st0" d="M14.2,6.1c0,0-0.7,0.6-1.3,1.6l0.9,0.5l0.8-1L14.2,6.1z"/>
		<path class="st1" d="M25.3,26.3c-1.3-2.1-1.7-3.9-2-5.8c-0.3-2-0.3-3.6,0-5.5c0.1-0.8,1-2.1,1.4-2.9c1.2-2.1,2-4.2,0.1-6.3
			c-0.1-0.2-0.1-0.5-0.2-0.8c0.1-0.4,0.3-0.5,0.5-0.3c0.4,0.5,0.9,1.1,1.2,1.6c1,2.1,2.1,2.5,4.2,1.6c2.3-1.1,5-0.5,6.8,1.3
			c0.9,0.9,1.1,2,0.1,2.8c-1.4,1.2-2.8,2.4-4.4,3.3c-0.6,0.4-1.6,0.3-2.4,0.2c-1-0.1-2-0.4-3.5-0.8C26.5,18.7,25.9,22.5,25.3,26.3z"
			/>
		<path class="st1" d="M13.4,29.5c0.8-3.4,3.4-7.5,3.2-10.8c-0.1-2-0.1-1.5-0.3-3.8c-0.2-0.8-1.6-3.4-2.1-4.1
			c-1.4-2-3.2-2.2-1.6-4.5c0.1-0.2,0.1-0.5,0.1-0.8c0-0.3-0.2-0.6-0.5-0.2c-0.3,0.5-0.8,1.1-1,1.8c-0.8,2.2-1.9,2.7-4,2
			c-2.4-0.8-5,0-6.6,2c-0.8,1-0.8,2.1,0.2,2.8c1.5,1.1,3.1,2.1,4.7,2.8c0.6,0.3,1.6,0.1,2.4,0c1-0.2,1.5-0.5,2.9-1
			C11.8,19.4,12.4,25.7,13.4,29.5z"/>
		<path class="st1" d="M24.7,4C24.7,4,24.7,4,24.7,4c-0.2-0.2-0.2-0.3-0.4-0.4c-0.1-0.1-0.3-0.3-0.5-0.4c-0.1,0-0.2-0.1-0.3-0.2
			C23.3,3,23.2,3,23,2.9c-0.3-0.1-0.6-0.2-0.9-0.3c-0.3-0.1-0.7-0.2-1.1-0.3c-0.2,0-0.4-0.1-0.6-0.1c-0.2,0-0.4,0-0.6-0.1
			c-0.2,0-0.4,0-0.6,0c-0.2,0-0.4,0-0.6,0c-0.4,0-0.8,0-1.2,0.1c-0.2,0-0.4,0-0.6,0.1c-0.2,0-0.4,0.1-0.6,0.1
			c-0.4,0.1-0.7,0.2-1.1,0.3c-0.3,0.1-0.6,0.3-0.9,0.4c-0.3,0.1-0.5,0.3-0.7,0.5c-0.2,0.1-0.4,0.3-0.5,0.4c-0.3,0.2-0.4,0.4-0.4,0.4
			s0.2-0.1,0.5-0.3c0.1-0.1,0.3-0.2,0.5-0.3c0.1,0,0.2-0.1,0.4-0.1c0.1,0,0.2-0.1,0.4-0.2c0.1,0,0.3-0.1,0.4-0.1
			c0.1,0,0.3-0.1,0.5-0.1c0.3-0.1,0.7-0.2,1-0.2C16.6,3,16.8,3,17,3c0.2,0,0.4,0,0.5,0c0.4,0,0.8,0,1.1-0.1c0.2,0,0.4,0,0.6,0
			c0.2,0,0.4,0,0.6,0c0.2,0,0.4,0,0.6,0c0.2,0,0.4,0,0.5,0c0.4,0,0.7,0.1,1,0.1c0.2,0,0.3,0.1,0.5,0.1c0.1,0,0.3,0,0.5,0.1
			c0.1,0,0.3,0.1,0.4,0.1c0.1,0,0.2,0.1,0.4,0.1c0.2,0.1,0.4,0.2,0.6,0.2c0.2,0.1,0.3,0.1,0.4,0.2C24.6,4,24.7,4,24.7,4z"/>
		<path class="st1" d="M15.7,27.9c0.1-0.5,1.1-1,1.6-1.1c0.7-0.2,1.6-0.1,2.2-0.1c0.2,0,1.2-0.1,1.3-0.1c0.7-0.1,1.3-0.2,2-0.1
			c0.5,0.1,1.5,0.4,1.7,1c0.1,0.2,0,0.8-0.3,1c-0.2,0.1-0.7,0-0.9,0c-0.7,0-1.3,0.4-0.7,1c0.4,0.4,1.2,0.4,1.3,1
			c0.1,0.9-0.5,2.4-2.1,2.3c-1.8-0.2-2.9-0.1-3.4,0.1c-1.8,0.5-2.1-1.2-2.1-2.1c0-0.6,1-0.6,1.3-1c0.5-0.7-0.1-1-0.8-1
			c-0.2,0-0.8,0.1-0.9,0C15.8,28.7,15.7,28.1,15.7,27.9z"/>
		<path class="st1" d="M25.3,26.8c0,0,0,0.1,0,0.2c0,0.2,0,0.4,0,0.7c0,0.3,0,0.6,0.1,1.1c0,0.4,0.2,0.9,0.3,1.3c0,0.2,0,0.5,0,0.7
			c0,0.1,0,0.3-0.1,0.4c0,0.1-0.1,0.2-0.2,0.4c-0.3,0.5-0.8,0.8-1.4,0.9c-0.6,0.2-1.2,0.2-1.9,0.2c-0.6,0-1.3,0-2,0
			c-0.7,0-1.3,0.1-2,0.1c-0.6,0-1.3,0-1.9,0c-0.6-0.1-1.2-0.2-1.6-0.5c-0.4-0.3-0.8-0.8-0.9-1.2s0-0.9,0.2-1.3
			c0.1-0.4,0.3-0.7,0.4-1c0.1-0.3,0.2-0.5,0.2-0.6c0-0.1,0-0.2,0-0.2s0,0.1-0.1,0.2c0,0.1-0.1,0.4-0.3,0.6c-0.1,0.3-0.3,0.6-0.5,1
			c0,0.1-0.1,0.2-0.1,0.3c0,0,0,0.1,0,0.1c0,0,0,0.1,0,0.2c0,0.2-0.1,0.5,0,0.7c0.1,0.5,0.4,1,0.9,1.4c0.5,0.4,1.1,0.6,1.7,0.7
			c0.6,0.1,1.3,0.1,2,0c0.7,0,1.3-0.1,2-0.1c0.7,0,1.3,0,2,0c0.7,0,1.3,0,2-0.2c0.3-0.1,0.6-0.2,0.9-0.4c0.3-0.2,0.5-0.4,0.6-0.7
			c0.1-0.1,0.1-0.3,0.2-0.4s0.1-0.3,0.1-0.4c0-0.3,0-0.5,0-0.8c-0.1-0.5-0.3-0.9-0.3-1.3c-0.1-0.4-0.1-0.7-0.1-1.1
			C25.3,27.1,25.3,26.8,25.3,26.8z"/>
		<path class="st0" d="M26.1,14.2c-0.2,1.1,0,1.1,0.1,1.2c0.3,0.1,0.6-0.3,0.8-0.9c0.2-0.6,0.2-1.1-0.1-1.2
			C26.7,13.2,26.1,13.6,26.1,14.2z"/>
		<path class="st1" d="M26.2,14.5c-0.2,0.7-0.1,0.9,0.1,1c0.2,0.1,0.6-0.3,0.7-0.7c0.2-0.4,0.1-0.8-0.1-0.9
			C26.7,13.8,26.3,14.1,26.2,14.5z"/>
		<g>
			<path class="st0" d="M12.5,14.4c0.3,1.1,0.1,1.1,0,1.2c-0.3,0.1-0.7-0.2-1-0.8c-0.3-0.5-0.3-1.1,0-1.2
				C11.7,13.5,12.3,13.8,12.5,14.4z"/>
			<path class="st1" d="M12.3,14.7c0.3,0.7,0.3,0.9,0,1c-0.3,0.1-0.7-0.3-0.9-0.6s-0.2-0.8,0.1-0.9C11.7,14.1,12.2,14.3,12.3,14.7z"
				/>
		</g>
		<path class="st0" d="M10.7,14.4c0,0,0-0.1,0-0.2c0-0.2,0-0.4,0-0.6c0-0.1,0-0.3,0.1-0.4v0c0,0,0,0,0,0l0-0.1
			c0-0.1,0.1-0.1,0.1-0.2c0.1-0.1,0.2-0.3,0.2-0.5c0-0.1,0.1-0.2,0.1-0.3l0-0.3c0-0.2,0-0.4,0-0.6c0-0.2,0-0.4,0-0.5
			c0-0.2,0-0.3,0-0.5s0-0.3,0-0.4c0-0.1,0-0.3,0-0.4c0-0.1,0-0.2,0-0.3c0-0.1,0-0.1,0-0.2c0,0,0-0.1,0-0.1s0,0,0,0.1
			c0,0,0,0.1-0.1,0.2c0,0.1-0.1,0.4-0.1,0.7c0,0.1,0,0.3,0,0.4c0,0.1,0,0.3,0,0.5c0,0.2,0,0.4,0,0.5c0,0.2,0,0.3,0,0.5l0,0.3
			c0,0.1,0,0.1-0.1,0.2c-0.1,0.2-0.1,0.3-0.2,0.5c0,0.1-0.1,0.2-0.1,0.2l0,0.1c0,0,0,0,0,0.1v0.1c0,0.2,0,0.3,0,0.5
			c0,0.3,0.1,0.5,0.1,0.7C10.6,14.4,10.7,14.4,10.7,14.4z"/>
	</g>
	<rect x="41.6" y="6.8" class="st2" width="156.7" height="13.8"/>
	<text transform="matrix(1 0 0 1 41.6152 17.3789)" class="st3 st4 st5">Livestock Solution</text>
	<rect x="41.9" y="22.5" class="st2" width="113.5" height="20.9"/>
	<text transform="matrix(1 0 0 1 41.8872 28.7256)" class="st6 st4 st7">Smart, Automated &amp; Intelligent</text>
</g>
</svg>
