<?xml version="1.0" encoding="utf-8"?>
<!-- Generator: Adobe Illustrator 21.1.0, SVG Export Plug-In . SVG Version: 6.00 Build 0)  -->
<svg version="1.1" id="Layer_1" xmlns="http://www.w3.org/2000/svg" xmlns:xlink="http://www.w3.org/1999/xlink" x="0px" y="0px"
	 viewBox="0 0 500 500" style="enable-background:new 0 0 500 500;" xml:space="preserve">
<style type="text/css">
	.st0{fill:#6C81FF;stroke:#6C81FF;stroke-width:0.665;stroke-linecap:round;stroke-linejoin:round;}
	.st1{fill:#6C81FF;stroke:#6C81FF;stroke-width:0.3291;stroke-linecap:round;stroke-linejoin:round;}
	.st2{fill:#6C81FF;stroke:#6C81FF;stroke-width:0.7937;}
</style>
<path id="path858" class="st0" d="M247.4,408.6c0,3.4-3.1,6.1-6.9,6.1h0c-3.8,0-6.9-2.7-6.9-6.1c0,0,0,0,0,0c0-3.4,3.1-6.1,6.9-6.1
	S247.4,405.2,247.4,408.6z"/>
<path id="circle860" class="st1" d="M173.9,403c1.9,0,3.4,1.4,3.4,3l0,0c0,1.7-1.5,3-3.4,3l0,0c-1.9,0-3.4-1.4-3.4-3l0,0
	C170.5,404.4,172,403,173.9,403L173.9,403z"/>
<path id="circle860-3" class="st1" d="M201,373.7c1.9,0,3.4,1.4,3.4,3l0,0c0,1.7-1.5,3-3.4,3l0,0c-1.9,0-3.4-1.4-3.4-3l0,0
	C197.6,375,199.1,373.7,201,373.7L201,373.7z"/>
<path id="path858-6" class="st0" d="M62.7,312.6c3.8,0,6.9,2.7,6.9,6.1s-3.1,6.1-6.9,6.1s-6.9-2.7-6.9-6.1S58.9,312.6,62.7,312.6
	C62.7,312.6,62.7,312.6,62.7,312.6z"/>
<path id="path858-8" class="st0" d="M116.1,202.1c0,3.4-3.1,6.1-6.9,6.1s-6.9-2.7-6.9-6.1s3.1-6.1,6.9-6.1S116.1,198.8,116.1,202.1z
	"/>
<path id="path858-5" class="st0" d="M280.9,165.1c0,3.4-3.1,6.1-6.9,6.1s-6.9-2.7-6.9-6.1c0-3.4,3.1-6.1,6.9-6.1
	S280.9,161.8,280.9,165.1z"/>
<path id="path858-69" class="st0" d="M319.1,303.9L319.1,303.9c0,3.4-3.1,6.1-6.9,6.1l0,0c-3.8,0-6.9-2.7-6.9-6.1
	c0-3.4,3.1-6.1,6.9-6.1C316,297.8,319.1,300.5,319.1,303.9z"/>
<path id="path858-2" class="st0" d="M253.1,259.5c0,3.4-3.1,6.1-6.9,6.1c-3.8,0-6.9-2.7-6.9-6.1c0-3.4,3.1-6.1,6.9-6.1
	C250,253.4,253.1,256.1,253.1,259.5z"/>
<path id="path858-51" class="st0" d="M161.3,110.9c0,3.4-3.1,6.1-6.9,6.1c-3.8,0-6.9-2.7-6.9-6.1s3.1-6.1,6.9-6.1
	C158.2,104.7,161.3,107.5,161.3,110.9z"/>
<path id="circle860-65" class="st1" d="M349.9,423.1c1.9,0,3.4,1.4,3.4,3l0,0c0,1.7-1.5,3-3.4,3l0,0c-1.9,0-3.4-1.4-3.4-3l0,0
	C346.5,424.4,348,423.1,349.9,423.1L349.9,423.1z"/>
<path id="circle860-49" class="st1" d="M284.4,362.6c1.9,0,3.4,1.4,3.4,3l0,0c0,1.7-1.5,3-3.4,3l0,0c-1.9,0-3.4-1.4-3.4-3l0,0
	C281,363.9,282.5,362.6,284.4,362.6L284.4,362.6z"/>
<path id="circle860-38" class="st1" d="M130.1,379.2c1.9,0,3.4,1.4,3.4,3l0,0c0,1.7-1.5,3-3.4,3l0,0c-1.9,0-3.4-1.4-3.4-3l0,0
	C126.7,380.6,128.2,379.2,130.1,379.2L130.1,379.2z"/>
<path id="circle860-5" class="st1" d="M37.6,391.5c0,1.7-1.5,3-3.4,3s-3.4-1.4-3.4-3s1.5-3,3.4-3S37.6,389.8,37.6,391.5z"/>
<path id="circle860-8" class="st1" d="M45.2,240.4c0,1.7-1.5,3-3.4,3s-3.4-1.4-3.4-3s1.5-3,3.4-3S45.2,238.7,45.2,240.4z"/>
<path id="circle860-60" class="st1" d="M106.5,280.5c1.9,0,3.4,1.4,3.4,3l0,0c0,1.7-1.5,3-3.4,3l0,0c-1.9,0-3.4-1.4-3.4-3l0,0
	C103.1,281.9,104.6,280.5,106.5,280.5L106.5,280.5z"/>
<path id="circle860-7" class="st1" d="M52.9,135.5C52.9,135.5,52.9,135.5,52.9,135.5c0,1.7-1.5,3-3.4,3h0c-1.9,0-3.4-1.4-3.4-3
	c0-1.7,1.5-3,3.4-3S52.9,133.9,52.9,135.5z"/>
<path id="circle860-9" class="st1" d="M189.1,178.7c0,1.7-1.5,3-3.4,3s-3.4-1.4-3.4-3s1.5-3,3.4-3S189.1,177,189.1,178.7z"/>
<path id="circle860-57" class="st1" d="M250.3,86.2c0,1.7-1.5,3-3.4,3s-3.4-1.4-3.4-3s1.5-3,3.4-3S250.3,84.5,250.3,86.2z"/>
<path id="circle860-63" class="st1" d="M326,115.8c0,1.7-1.5,3-3.4,3c-1.9,0-3.4-1.4-3.4-3s1.5-3,3.4-3
	C324.5,112.8,326,114.1,326,115.8z"/>
<path id="circle860-32" class="st1" d="M316.3,216.3c0,1.7-1.5,3-3.4,3c-1.9,0-3.4-1.4-3.4-3s1.5-3,3.4-3
	C314.8,213.3,316.3,214.7,316.3,216.3z"/>
<path id="path1059" class="st2" d="M201,376.7l-23.4-96.3"/>
<path id="path1059-4" class="st2" d="M130.1,382.3l47.5-101.9"/>
<path id="path1059-4-8" class="st2" d="M130.1,382.3l-67.4-63.5"/>
<path id="path1059-4-8-5" class="st2" d="M130.1,382.3l-95.9,9.3"/>
<path id="path1059-4-8-5-3-0-3-4-1-4-9-9" class="st2" d="M350,429l-65.5-63.5"/>
<path id="path1059-4-8-5-3-0-3-4-1-4-9-9-4" class="st2" d="M312.2,303.9l-27.8,61.7"/>
<path id="path1059-4-8-5-3-0-3-4-1-4-9-9-4-4" class="st2" d="M312.2,303.9l-66-44.4"/>
<path id="path1059-4-8-5-3-0-3-4-1-4-9-9-4-4-8" class="st2" d="M274,165.1l-27.8,94.4"/>
<path id="path1059-4-8-5-3-0-3-4-1-4-9-9-4-4-8-1" class="st2" d="M274,165.1l38.9,51.2"/>
<path id="path1059-4-8-5-3-0-3-4-1-4-9-9-4-4-8-1-6" class="st2" d="M274,165.1l48.7-49.3"/>
<path id="path1059-4-8-5-3-0-3-4-1-4-9-9-4-4-8-1-6_2_" class="st2" d="M408,135l53,47"/>
<path id="path1059-4-8-5-3-0-3-4-1-4-9-9-4-4-8-1-6-5" class="st2" d="M274,165.1l-27.1-79"/>
<path id="path1059-4-8-5-3-0-3-4-1-4-9-9-4-4-8-1-6-5-0" class="st2" d="M274,165.1l-88.3,13.6"/>
<path id="path1059-4-8-5-3-0-3-4-1-4-9-9-4-4-8-1-6-5-0-1" class="st2" d="M154.4,110.9l31.3,67.9"/>
<path id="path1059-4-8-5-3-0-3-4-1-4-9-9-4-4-8-1-6-5-0-1-5" class="st2" d="M154.4,110.9l-45.2,91.3"/>
<path id="path1059-4-8-5-3-0-3-4-1-4-9-9-4-4-8-1-6-5-0-1-5-8" class="st2" d="M154.4,110.9L49.5,135.5"/>
<path id="path1059-4-8-5-3-0-3-4-1-4-9-9-4-4-8-1-6-5-0-1-5-6" class="st2" d="M106.5,283.6l2.8-81.4"/>
<path id="path1059-4-8-5-3-0-3-4-1-4-9-9-4-4-8-1-6-5-0-1-5-6-0" class="st2" d="M106.5,283.6l-64.6-43.2"/>
<path id="path1059-4-8-5-3-0-3-4-1-4-9-9-4-4-8-1-6-5-0-1-5-6-0-1" class="st2" d="M106.5,283.6l-43.8,35.2"/>
<path id="circle860-33-9" class="st1" d="M192.8,55.3C192.8,55.3,192.8,55.3,192.8,55.3c0,1.7-1.5,3-3.4,3h0c-1.9,0-3.4-1.4-3.4-3
	c0-1.7,1.5-3,3.4-3C191.2,52.3,192.8,53.6,192.8,55.3z"/>
<path id="circle860-33-8" class="st1" d="M121,49.2c0,1.7-1.5,3-3.4,3c-1.9,0-3.4-1.4-3.4-3s1.5-3,3.4-3
	C119.5,46.2,121,47.5,121,49.2z"/>
<path id="circle860-33-5" class="st1" d="M23.7,162.6c0,1.7-1.5,3-3.4,3s-3.4-1.4-3.4-3s1.5-3,3.4-3S23.7,160.9,23.7,162.6z"/>
<path id="path1059-4-8-5-3-0-3-4-1-4-9-9-4-4-8-1-6-5-0-9" class="st2" d="M246.2,259.5l-60.5-80.8"/>
<path id="path1059-4-8-5-3-0-3-4-1-4-9-9-4-4-8-1-6-5-0-9-0" class="st2" d="M109.3,202.1l76.5-23.4"/>
<path id="path1059-4-8-5-3-0-3-4-1-4-9-9-4-4-8-1-6-5-0-9-0-0-5" class="st2" d="M109.3,202.1l-89-39.5"/>
<path id="path1059-4-8-5-3-0-3-4-1-4-9-9-4-4-8-1-6-5-0-1-6" class="st2" d="M154.4,110.9l34.9-55.5"/>
<path id="path1059-4-8-5-3-0-3-4-1-4-9-9-4-4-8-1-6-5-0-1-6-0" class="st2" d="M154.4,110.9l-36.8-61.6"/>
<path id="path1059-4-8-5-3-0-3-4-1-6" class="st2" d="M201,376.7l39.5,31.9"/>
<path id="path858-5-7" class="st0" d="M298.2,52.3c0,3.4-3.1,6.1-6.9,6.1c-3.8,0-6.9-2.7-6.9-6.1c0-3.4,3.1-6.1,6.9-6.1
	C295.2,46.1,298.2,48.9,298.2,52.3z"/>
<path id="path858-5-72" class="st0" d="M65.4,66.4c0,3.4-3.1,6.1-6.9,6.1c-3.8,0-6.9-2.7-6.9-6.1s3.1-6.1,6.9-6.1
	C62.3,60.3,65.4,63.1,65.4,66.4z"/>
<path id="path1059-4-8-5-3-0-3-4-1-6-7" class="st2" d="M201,376.7l111.2-72.8"/>
<path id="path1059-4-8-5-3-0-3-4-1-6-7-3" class="st2" d="M201,376.7l83.4-11.1"/>
<path id="path1059-4-8-5-3-0-3-4-1-6-7-3-2" class="st2" d="M201,376.7l45.2-117.2"/>
<path id="path1059-4-8-5-3-0-3-4-1-4-9-9-4-4-8-1-6-5-0-1-5-6-8" class="st2" d="M106.5,283.6l71.1-3.2"/>
<path id="path1059-4-8-5-3-0-3-4-1-4-9-9-4-4-8-1-6-5-0-9-0-5" class="st2" d="M177.6,280.4l8.1-101.7"/>
<path id="path1059-4-8-5-3-0-3-4-1-6-7-3-2-9" class="st2" d="M177.6,280.4l68.6-20.9"/>
<path id="circle860-57-1" class="st1" d="M346.1,49.2c0,1.7-1.5,3-3.4,3c-1.9,0-3.4-1.4-3.4-3s1.5-3,3.4-3
	C344.6,46.2,346.1,47.5,346.1,49.2z"/>
<path id="circle860-57-1_1_" class="st1" d="M463.1,128.2c0,1.7-1.5,3-3.4,3c-1.9,0-3.4-1.4-3.4-3c0-1.7,1.5-3,3.4-3
	C461.6,125.2,463.1,126.5,463.1,128.2z"/>
<path id="circle860-57-3" class="st1" d="M303.3,6c0,1.7-1.5,3-3.4,3c-1.9,0-3.4-1.4-3.4-3s1.5-3,3.4-3C301.8,3,303.3,4.4,303.3,6z"
	/>
<path id="circle860-57-2" class="st1" d="M6.5,87.2c1.9,0,3.4,1.4,3.4,3l0,0c0,1.7-1.5,3-3.4,3s-3.4-1.4-3.4-3S4.7,87.2,6.5,87.2
	L6.5,87.2z"/>
<path id="circle860-57-9" class="st1" d="M15.8,32.2c0,1.7-1.5,3-3.4,3S9,33.9,9,32.2c0-1.7,1.5-3,3.4-3S15.8,30.5,15.8,32.2z"/>
<path id="circle860-57-0" class="st1" d="M213.4,116.8c0,1.7-1.5,3-3.4,3c-1.9,0-3.4-1.4-3.4-3c0-1.7,1.5-3,3.4-3
	C211.9,113.8,213.4,115.1,213.4,116.8z"/>
<path id="circle860-57-91" class="st1" d="M228.6,30c0,1.7-1.5,3-3.4,3c-1.9,0-3.4-1.4-3.4-3c0-1.7,1.5-3,3.4-3
	C227.1,27,228.6,28.3,228.6,30z"/>
<path id="path1059-4-8-5-3-0-3-4-1-4-9-9-4-4-8-1-6-5-7" class="st2" d="M291.4,52.3l-44.5,33.9"/>
<path id="path1059-4-8-5-3-0-3-4-1-4-9-9-4-4-8-1-6-5-7-4" class="st2" d="M291.4,52.3l51.3-3"/>
<path id="path1059-4-8-5-3-0-3-4-1-4-9-9-4-4-8-1-6-5-7-4_3_" class="st2" d="M346.4,49.3l73.6-3.6"/>
<path id="path1059-4-8-5-3-0-3-4-1-4-9-9-4-4-8-1-6-5-7-4_1_" class="st2" d="M407.4,131.3l51.3-3"/>
<path id="path1059-4-8-5-3-0-3-4-1-4-9-9-4-4-8-1-6-5-7-4_2_" class="st2" d="M325,114.8l83.1,17.4"/>
<path id="path1059-4-8-5-3-0-3-4-1-4-9-9-4-4-8-1-6-5-7-4-2" class="st2" d="M291.4,52.3L299.9,6"/>
<path id="path1059-4-8-5-3-0-3-4-1-4-9-9-4-4-8-1-6-5-7-4-2-7" class="st2" d="M291.4,52.3L225.2,30"/>
<path id="path1059-4-8-5-3-0-3-4-1-4-9-9-4-4-8-1-6-5-7-5" class="st2" d="M210,116.8l36.9-30.6"/>
<path id="path1059-4-8-5-3-0-3-4-1-4-9-9-4-4-8-1-6-5-7-5_1_" class="st2" d="M323,113l20.9-65.8"/>
<path id="path1059-4-8-5-3-0-3-4-1-4-9-9-4-4-8-1-6-5-7-5-5" class="st2" d="M210,116.8l-55.6-6"/>
<path id="path1059-4-8-5-3-0-3-4-1-4-9-9-4-4-8-1-6-5-7-5-5-7" class="st2" d="M210,116.8l-24.3,61.9"/>
<path id="path1059-4-8-5-3-0-3-4-1-4-9-9-4-4-8-1-6-5-7-5-5-7-1" class="st2" d="M210,116.8l64,48.3"/>
<path id="path1059-4-8-5-3-0-3-4-1-4-9-9-4-4-8-1-6-5-0-1-5-8-3" class="st2" d="M58.5,66.4l-9,69.1"/>
<path id="path1059-4-8-5-3-0-3-4-1-4-9-9-4-4-8-1-6-5-0-1-5-8-3-7" class="st2" d="M109.3,202.1l-59.8-66.6"/>
<path id="path1059-4-8-5-3-0-3-4-1-4-9-9-4-4-8-1-6-5-0-1-5-8-3-78" class="st2" d="M58.5,66.4l59.1-17.2"/>
<path id="path1059-4-8-5-3-0-3-4-1-4-9-9-4-4-8-1-6-5-0-1-5-8-3-78-5" class="st2" d="M58.5,66.4l-52,23.8"/>
<path id="path1059-4-8-5-3-0-3-4-1-4-9-9-4-4-8-1-6-5-0-1-5-8-3-78-5-6" class="st2" d="M58.5,66.4L12.4,32.2"/>
<path id="circle860-5-7" class="st1" d="M21.3,342.5c0,1.7-1.5,3-3.4,3s-3.4-1.4-3.4-3s1.5-3,3.4-3S21.3,340.8,21.3,342.5z"/>
<path id="circle860-5-1" class="st1" d="M348.6,342.8c1.9,0,3.4,1.4,3.4,3l0,0c0,1.7-1.5,3-3.4,3c0,0,0,0,0,0c-1.9,0-3.4-1.4-3.4-3
	l0,0C345.2,344.1,346.7,342.8,348.6,342.8C348.6,342.8,348.6,342.8,348.6,342.8z"/>
<path id="circle860-5-2" class="st1" d="M350.6,176.4c0,1.7-1.5,3-3.4,3c-1.9,0-3.4-1.4-3.4-3s1.5-3,3.4-3
	C349.1,173.4,350.6,174.8,350.6,176.4z"/>
<path id="path1059-4-8-5-3-0-3-4-1-4-9-9-4-46" class="st2" d="M312.2,303.9l36.4,41.9"/>
<path id="path1059-4-8-5-3-0-3-4-1-4-9-9-4-46-1" class="st2" d="M313.2,217.9l34-43.5"/>
<path id="path1059-4-8-8" class="st2" d="M17.9,342.5l44.8-23.7"/>
<path id="path1059-4-8-5-3-0-3-4-1-4-9-9-4-4-8-1-6-5-0-1-5-6-0-1-5" class="st2" d="M106.5,283.6l23.6,98.7"/>
<path id="path1059-4-2" class="st2" d="M130.1,382.3l43.8,23.8"/>
<path id="path1059-4-2-5" class="st2" d="M130.1,382.3l70.9-5.6"/>
<path id="path858-69_1_" class="st0" d="M434.1,225.9L434.1,225.9c0,3.4-3.1,6.1-6.9,6.1l0,0c-3.8,0-6.9-2.7-6.9-6.1
	c0-3.4,3.1-6.1,6.9-6.1C431,219.8,434.1,222.5,434.1,225.9z"/>
<path id="circle860-49_1_" class="st1" d="M407.4,129.6c1.9,0,3.4,1.4,3.4,3l0,0c0,1.7-1.5,3-3.4,3l0,0c-1.9,0-3.4-1.4-3.4-3l0,0
	C404,130.9,405.5,129.6,407.4,129.6L407.4,129.6z"/>
<path id="path1059-4-8-5-3-0-3-4-1-4-9-9-4_1_" class="st2" d="M427.2,225.9L381,304"/>
<path id="path1059-4-8-5-3-0-3-4-1-4-9-9-4-4_1_" class="st2" d="M424.5,229.7L344,176"/>
<path id="path1059-4-8-5-3-0-3-4-1-6-7_1_" class="st2" d="M316,298.7l111.2-72.8"/>
<path id="circle860-5-1_1_" class="st1" d="M463.6,264.8c1.9,0,3.4,1.4,3.4,3l0,0c0,1.7-1.5,3-3.4,3c0,0,0,0,0,0
	c-1.9,0-3.4-1.4-3.4-3l0,0C460.2,266.1,461.7,264.8,463.6,264.8C463.6,264.8,463.6,264.8,463.6,264.8z"/>
<path id="circle860-5-2_1_" class="st1" d="M464.6,182.4c0,1.7-1.5,3-3.4,3c-1.9,0-3.4-1.4-3.4-3s1.5-3,3.4-3
	C463.1,179.4,464.6,180.8,464.6,182.4z"/>
<path id="path1059-4-8-5-3-0-3-4-1-4-9-9-4-46_1_" class="st2" d="M427.2,225.9l36.4,41.9"/>
<path id="path1059-4-8-5-3-0-3-4-1-4-9-9-4-46-1_1_" class="st2" d="M427.2,225.9l34-43.5"/>
<path id="path1059-4-8-5-3-0-3-4-1-4-9-9-4-4-8-1-6_1_" class="st2" d="M312,304l0.6-85.2"/>
<path id="path1059-4-8-5-3-0-3-4-1-4-9-9-4-4-8-1-6_3_" class="st2" d="M349,428l0.6-85.2"/>
<path id="circle860-5-2_3_" class="st1" d="M384.6,306.4c0,1.7-1.5,3-3.4,3c-1.9,0-3.4-1.4-3.4-3s1.5-3,3.4-3
	C383.1,303.4,384.6,304.8,384.6,306.4z"/>
<path id="path1059-4-8-5-3-0-3-4-1-4-9-9-4-46-1_3_" class="st2" d="M347.2,347.9l34-43.5"/>
<path id="path858-69_2_" class="st0" d="M468.1,355.9L468.1,355.9c0,3.4-3.1,6.1-6.9,6.1l0,0c-3.8,0-6.9-2.7-6.9-6.1
	c0-3.4,3.1-6.1,6.9-6.1C465,349.8,468.1,352.5,468.1,355.9z"/>
<path id="circle860-49_2_" class="st1" d="M433.4,414.6c1.9,0,3.4,1.4,3.4,3l0,0c0,1.7-1.5,3-3.4,3l0,0c-1.9,0-3.4-1.4-3.4-3l0,0
	C430,415.9,431.5,414.6,433.4,414.6L433.4,414.6z"/>
<path id="path1059-4-8-5-3-0-3-4-1-4-9-9-4_2_" class="st2" d="M461.2,355.9l-27.8,61.7"/>
<path id="path1059-4-8-5-3-0-3-4-1-4-9-9-4-4_2_" class="st2" d="M458.5,359.7L378,306"/>
<path id="circle860-5-1_2_" class="st1" d="M497.6,394.8c1.9,0,3.4,1.4,3.4,3l0,0c0,1.7-1.5,3-3.4,3c0,0,0,0,0,0
	c-1.9,0-3.4-1.4-3.4-3l0,0C494.2,396.1,495.7,394.8,497.6,394.8C497.6,394.8,497.6,394.8,497.6,394.8z"/>
<path id="circle860-5-2_2_" class="st1" d="M498.6,312.4c0,1.7-1.5,3-3.4,3c-1.9,0-3.4-1.4-3.4-3s1.5-3,3.4-3
	C497.1,309.4,498.6,310.8,498.6,312.4z"/>
<path id="path1059-4-8-5-3-0-3-4-1-4-9-9-4-46_2_" class="st2" d="M461.2,355.9l36.4,41.9"/>
<path id="path1059-4-8-5-3-0-3-4-1-4-9-9-4-46-1_2_" class="st2" d="M461.2,355.9l34-43.5"/>
<path id="path1059-4-8-5-3-0-3-4-1-4-9-9-4-46-1_4_" class="st2" d="M347.2,175.9L405,133"/>
<path id="circle860-57-1_2_" class="st1" d="M424.1,46.2c0,1.7-1.5,3-3.4,3c-1.9,0-3.4-1.4-3.4-3s1.5-3,3.4-3
	C422.6,43.2,424.1,44.5,424.1,46.2z"/>
</svg>
